<svg xmlns="http://www.w3.org/2000/svg" xmlns:xlink="http://www.w3.org/1999/xlink" width="300" zoomAndPan="magnify" viewBox="0 90 375 374.999991" height="300" preserveAspectRatio="xMidYMid meet" version="1.0"><defs><g/><clipPath id="57d5c6f84b"><path d="M 33.992188 177 L 40 177 L 40 184 L 33.992188 184 Z M 33.992188 177 " clip-rule="nonzero"/></clipPath><clipPath id="ae960881ca"><path d="M 37.707031 182.449219 L 39.207031 180.949219 C 40.574219 179.578125 39.605469 177.238281 37.667969 177.238281 C 37.09375 177.238281 36.539062 177.46875 36.132812 177.875 L 34.632812 179.375 C 34.222656 179.78125 33.996094 180.335938 33.996094 180.910156 C 33.996094 182.847656 36.335938 183.820312 37.707031 182.449219 Z M 37.707031 182.449219 " clip-rule="nonzero"/></clipPath><linearGradient x1="22.480052" gradientTransform="matrix(0.270192, 0, 0, 0.270192, 33.994148, 156.948716)" y1="73.346257" x2="-0.931002" gradientUnits="userSpaceOnUse" y2="98.586433" id="25b229a950"><stop stop-opacity="1" stop-color="rgb(2.34375%, 36.997986%, 69.541931%)" offset="0"/><stop stop-opacity="1" stop-color="rgb(2.36969%, 36.825562%, 69.396973%)" offset="0.0625"/><stop stop-opacity="1" stop-color="rgb(2.424622%, 36.482239%, 69.108582%)" offset="0.125"/><stop stop-opacity="1" stop-color="rgb(2.479553%, 36.138916%, 68.82019%)" offset="0.1875"/><stop stop-opacity="1" stop-color="rgb(2.532959%, 35.795593%, 68.530273%)" offset="0.25"/><stop stop-opacity="1" stop-color="rgb(2.587891%, 35.453796%, 68.241882%)" offset="0.3125"/><stop stop-opacity="1" stop-color="rgb(2.642822%, 35.110474%, 67.953491%)" offset="0.375"/><stop stop-opacity="1" stop-color="rgb(2.696228%, 34.767151%, 67.6651%)" offset="0.4375"/><stop stop-opacity="1" stop-color="rgb(2.75116%, 34.423828%, 67.376709%)" offset="0.481202"/><stop stop-opacity="1" stop-color="rgb(2.778625%, 34.25293%, 67.23175%)" offset="0.5"/><stop stop-opacity="1" stop-color="rgb(2.804565%, 34.080505%, 67.086792%)" offset="0.518798"/><stop stop-opacity="1" stop-color="rgb(2.832031%, 33.909607%, 66.943359%)" offset="0.5625"/><stop stop-opacity="1" stop-color="rgb(2.859497%, 33.737183%, 66.798401%)" offset="0.625"/><stop stop-opacity="1" stop-color="rgb(2.914429%, 33.395386%, 66.51001%)" offset="0.6875"/><stop stop-opacity="1" stop-color="rgb(2.967834%, 33.052063%, 66.221619%)" offset="0.75"/><stop stop-opacity="1" stop-color="rgb(3.022766%, 32.70874%, 65.931702%)" offset="0.8125"/><stop stop-opacity="1" stop-color="rgb(3.076172%, 32.365417%, 65.643311%)" offset="0.875"/><stop stop-opacity="1" stop-color="rgb(3.131104%, 32.022095%, 65.354919%)" offset="0.9375"/><stop stop-opacity="1" stop-color="rgb(3.186035%, 31.680298%, 65.066528%)" offset="1"/></linearGradient><clipPath id="b05e973681"><path d="M 54 156.949219 L 61 156.949219 L 61 163 L 54 163 Z M 54 156.949219 " clip-rule="nonzero"/></clipPath><clipPath id="5d63bfd28b"><path d="M 58.003906 162.148438 L 59.492188 160.660156 C 60.863281 159.292969 59.894531 156.949219 57.957031 156.949219 C 57.378906 156.949219 56.828125 157.179688 56.421875 157.585938 L 54.929688 159.074219 C 54.523438 159.484375 54.292969 160.035156 54.292969 160.613281 C 54.292969 162.550781 56.632812 163.519531 58.003906 162.148438 Z M 58.003906 162.148438 " clip-rule="nonzero"/></clipPath><linearGradient x1="97.570932" gradientTransform="matrix(0.270192, 0, 0, 0.270192, 33.994148, 156.948716)" y1="-1.742911" x2="74.19832" gradientUnits="userSpaceOnUse" y2="23.455819" id="fce628f409"><stop stop-opacity="1" stop-color="rgb(0%, 51.799011%, 81.999207%)" offset="0"/><stop stop-opacity="1" stop-color="rgb(0%, 51.799011%, 81.999207%)" offset="0.25"/><stop stop-opacity="1" stop-color="rgb(0%, 51.799011%, 81.999207%)" offset="0.375"/><stop stop-opacity="1" stop-color="rgb(0.0213623%, 51.65863%, 81.881714%)" offset="0.4375"/><stop stop-opacity="1" stop-color="rgb(0.0701904%, 51.348877%, 81.619263%)" offset="0.481202"/><stop stop-opacity="1" stop-color="rgb(0.0976562%, 51.177979%, 81.47583%)" offset="0.5"/><stop stop-opacity="1" stop-color="rgb(0.125122%, 51.005554%, 81.330872%)" offset="0.518798"/><stop stop-opacity="1" stop-color="rgb(0.152588%, 50.834656%, 81.187439%)" offset="0.5625"/><stop stop-opacity="1" stop-color="rgb(0.178528%, 50.663757%, 81.04248%)" offset="0.625"/><stop stop-opacity="1" stop-color="rgb(0.233459%, 50.32196%, 80.755615%)" offset="0.6875"/><stop stop-opacity="1" stop-color="rgb(0.286865%, 49.978638%, 80.467224%)" offset="0.75"/><stop stop-opacity="1" stop-color="rgb(0.341797%, 49.636841%, 80.178833%)" offset="0.8125"/><stop stop-opacity="1" stop-color="rgb(0.395203%, 49.293518%, 79.890442%)" offset="0.875"/><stop stop-opacity="1" stop-color="rgb(0.450134%, 48.951721%, 79.602051%)" offset="0.9375"/><stop stop-opacity="1" stop-color="rgb(0.50354%, 48.608398%, 79.31366%)" offset="1"/></linearGradient><clipPath id="fa4b1d9ce2"><path d="M 33.992188 177 L 50 177 L 50 193 L 33.992188 193 Z M 33.992188 177 " clip-rule="nonzero"/></clipPath><clipPath id="d8408bddfb"><path d="M 47.464844 177.238281 C 46.886719 177.238281 46.332031 177.46875 45.925781 177.878906 L 34.632812 189.171875 C 34.222656 189.578125 33.996094 190.132812 33.996094 190.707031 C 33.996094 192.644531 36.335938 193.613281 37.707031 192.242188 L 49 180.949219 C 50.371094 179.578125 49.402344 177.238281 47.464844 177.238281 Z M 47.464844 177.238281 " clip-rule="nonzero"/></clipPath><linearGradient x1="58.02099" gradientTransform="matrix(0.270192, 0, 0, 0.270192, 33.994148, 156.948716)" y1="72.698566" x2="-0.22319" gradientUnits="userSpaceOnUse" y2="135.492947" id="502dd131a2"><stop stop-opacity="1" stop-color="rgb(1.721191%, 40.927124%, 72.848511%)" offset="0"/><stop stop-opacity="1" stop-color="rgb(1.737976%, 40.820312%, 72.758484%)" offset="0.015625"/><stop stop-opacity="1" stop-color="rgb(1.771545%, 40.606689%, 72.579956%)" offset="0.03125"/><stop stop-opacity="1" stop-color="rgb(1.805115%, 40.393066%, 72.399902%)" offset="0.046875"/><stop stop-opacity="1" stop-color="rgb(1.838684%, 40.180969%, 72.219849%)" offset="0.0625"/><stop stop-opacity="1" stop-color="rgb(1.873779%, 39.967346%, 72.041321%)" offset="0.078125"/><stop stop-opacity="1" stop-color="rgb(1.907349%, 39.753723%, 71.861267%)" offset="0.09375"/><stop stop-opacity="1" stop-color="rgb(1.940918%, 39.5401%, 71.681213%)" offset="0.109375"/><stop stop-opacity="1" stop-color="rgb(1.974487%, 39.326477%, 71.502686%)" offset="0.125"/><stop stop-opacity="1" stop-color="rgb(2.008057%, 39.112854%, 71.322632%)" offset="0.140625"/><stop stop-opacity="1" stop-color="rgb(2.041626%, 38.899231%, 71.142578%)" offset="0.15625"/><stop stop-opacity="1" stop-color="rgb(2.075195%, 38.687134%, 70.96405%)" offset="0.171875"/><stop stop-opacity="1" stop-color="rgb(2.110291%, 38.473511%, 70.783997%)" offset="0.1875"/><stop stop-opacity="1" stop-color="rgb(2.14386%, 38.259888%, 70.603943%)" offset="0.203125"/><stop stop-opacity="1" stop-color="rgb(2.177429%, 38.046265%, 70.423889%)" offset="0.21875"/><stop stop-opacity="1" stop-color="rgb(2.210999%, 37.832642%, 70.245361%)" offset="0.234375"/><stop stop-opacity="1" stop-color="rgb(2.244568%, 37.619019%, 70.065308%)" offset="0.25"/><stop stop-opacity="1" stop-color="rgb(2.278137%, 37.406921%, 69.885254%)" offset="0.265625"/><stop stop-opacity="1" stop-color="rgb(2.313232%, 37.193298%, 69.706726%)" offset="0.28125"/><stop stop-opacity="1" stop-color="rgb(2.346802%, 36.979675%, 69.526672%)" offset="0.296875"/><stop stop-opacity="1" stop-color="rgb(2.380371%, 36.766052%, 69.346619%)" offset="0.3125"/><stop stop-opacity="1" stop-color="rgb(2.41394%, 36.552429%, 69.168091%)" offset="0.328125"/><stop stop-opacity="1" stop-color="rgb(2.44751%, 36.338806%, 68.988037%)" offset="0.34375"/><stop stop-opacity="1" stop-color="rgb(2.481079%, 36.126709%, 68.807983%)" offset="0.359375"/><stop stop-opacity="1" stop-color="rgb(2.514648%, 35.913086%, 68.629456%)" offset="0.375"/><stop stop-opacity="1" stop-color="rgb(2.549744%, 35.699463%, 68.449402%)" offset="0.390625"/><stop stop-opacity="1" stop-color="rgb(2.583313%, 35.48584%, 68.269348%)" offset="0.40625"/><stop stop-opacity="1" stop-color="rgb(2.616882%, 35.272217%, 68.089294%)" offset="0.421875"/><stop stop-opacity="1" stop-color="rgb(2.650452%, 35.058594%, 67.910767%)" offset="0.4375"/><stop stop-opacity="1" stop-color="rgb(2.684021%, 34.846497%, 67.730713%)" offset="0.453125"/><stop stop-opacity="1" stop-color="rgb(2.71759%, 34.632874%, 67.550659%)" offset="0.46875"/><stop stop-opacity="1" stop-color="rgb(2.75116%, 34.41925%, 67.372131%)" offset="0.481245"/><stop stop-opacity="1" stop-color="rgb(2.76947%, 34.312439%, 67.282104%)" offset="0.484375"/><stop stop-opacity="1" stop-color="rgb(2.786255%, 34.205627%, 67.192078%)" offset="0.5"/><stop stop-opacity="1" stop-color="rgb(2.819824%, 33.992004%, 67.012024%)" offset="0.515625"/><stop stop-opacity="1" stop-color="rgb(2.853394%, 33.778381%, 66.833496%)" offset="0.518755"/><stop stop-opacity="1" stop-color="rgb(2.870178%, 33.673096%, 66.743469%)" offset="0.53125"/><stop stop-opacity="1" stop-color="rgb(2.886963%, 33.566284%, 66.653442%)" offset="0.546875"/><stop stop-opacity="1" stop-color="rgb(2.920532%, 33.352661%, 66.473389%)" offset="0.5625"/><stop stop-opacity="1" stop-color="rgb(2.954102%, 33.139038%, 66.294861%)" offset="0.578125"/><stop stop-opacity="1" stop-color="rgb(2.989197%, 32.925415%, 66.114807%)" offset="0.59375"/><stop stop-opacity="1" stop-color="rgb(3.022766%, 32.711792%, 65.934753%)" offset="0.609375"/><stop stop-opacity="1" stop-color="rgb(3.056335%, 32.498169%, 65.7547%)" offset="0.625"/><stop stop-opacity="1" stop-color="rgb(3.089905%, 32.284546%, 65.576172%)" offset="0.640625"/><stop stop-opacity="1" stop-color="rgb(3.123474%, 32.072449%, 65.396118%)" offset="0.65625"/><stop stop-opacity="1" stop-color="rgb(3.157043%, 31.858826%, 65.216064%)" offset="0.671875"/><stop stop-opacity="1" stop-color="rgb(3.190613%, 31.645203%, 65.037537%)" offset="0.6875"/><stop stop-opacity="1" stop-color="rgb(3.225708%, 31.43158%, 64.857483%)" offset="0.703125"/><stop stop-opacity="1" stop-color="rgb(3.259277%, 31.217957%, 64.677429%)" offset="0.71875"/><stop stop-opacity="1" stop-color="rgb(3.292847%, 31.004333%, 64.498901%)" offset="0.734375"/><stop stop-opacity="1" stop-color="rgb(3.326416%, 30.792236%, 64.318848%)" offset="0.75"/><stop stop-opacity="1" stop-color="rgb(3.359985%, 30.578613%, 64.138794%)" offset="0.765625"/><stop stop-opacity="1" stop-color="rgb(3.393555%, 30.36499%, 63.960266%)" offset="0.78125"/><stop stop-opacity="1" stop-color="rgb(3.427124%, 30.151367%, 63.780212%)" offset="0.796875"/><stop stop-opacity="1" stop-color="rgb(3.462219%, 29.937744%, 63.600159%)" offset="0.8125"/><stop stop-opacity="1" stop-color="rgb(3.495789%, 29.724121%, 63.421631%)" offset="0.828125"/><stop stop-opacity="1" stop-color="rgb(3.529358%, 29.512024%, 63.241577%)" offset="0.84375"/><stop stop-opacity="1" stop-color="rgb(3.562927%, 29.298401%, 63.061523%)" offset="0.859375"/><stop stop-opacity="1" stop-color="rgb(3.596497%, 29.084778%, 62.88147%)" offset="0.875"/><stop stop-opacity="1" stop-color="rgb(3.630066%, 28.871155%, 62.702942%)" offset="0.890625"/><stop stop-opacity="1" stop-color="rgb(3.663635%, 28.657532%, 62.522888%)" offset="0.90625"/><stop stop-opacity="1" stop-color="rgb(3.69873%, 28.443909%, 62.342834%)" offset="0.921875"/><stop stop-opacity="1" stop-color="rgb(3.7323%, 28.231812%, 62.164307%)" offset="0.9375"/><stop stop-opacity="1" stop-color="rgb(3.765869%, 28.018188%, 61.984253%)" offset="0.953125"/><stop stop-opacity="1" stop-color="rgb(3.799438%, 27.804565%, 61.804199%)" offset="0.96875"/><stop stop-opacity="1" stop-color="rgb(3.833008%, 27.590942%, 61.625671%)" offset="0.984375"/><stop stop-opacity="1" stop-color="rgb(3.866577%, 27.377319%, 61.445618%)" offset="1"/></linearGradient><clipPath id="9f18b9ccf8"><path d="M 39 156.949219 L 94.742188 156.949219 L 94.742188 217.699219 L 39 217.699219 Z M 39 156.949219 " clip-rule="nonzero"/></clipPath><clipPath id="70c21ecad4"><path d="M 94.105469 184.820312 L 82.15625 196.773438 C 81.640625 197.285156 80.902344 197.511719 80.179688 197.363281 C 78.074219 196.9375 77.648438 195.121094 79.171875 193.605469 L 84.445312 188.324219 C 84.695312 188.074219 84.816406 187.742188 84.816406 187.414062 C 84.816406 187.082031 84.695312 186.75 84.445312 186.507812 C 83.9375 186.003906 83.132812 186.003906 82.625 186.507812 L 67.085938 202.050781 C 66.832031 202.300781 66.710938 202.632812 66.710938 202.960938 C 66.710938 203.285156 66.832031 203.613281 67.085938 203.867188 C 67.578125 204.371094 68.398438 204.371094 68.902344 203.867188 L 70.738281 202.03125 C 72.136719 200.640625 74.546875 201.675781 74.449219 203.695312 C 74.414062 204.25 74.15625 204.773438 73.753906 205.164062 L 61.867188 217.0625 C 61.355469 217.574219 60.613281 217.800781 59.890625 217.652344 C 57.789062 217.226562 57.359375 215.410156 58.882812 213.898438 L 64.007812 208.765625 C 64.257812 208.515625 64.378906 208.191406 64.378906 207.859375 C 64.378906 207.53125 64.257812 207.199219 64.007812 206.949219 C 63.5 206.441406 62.6875 206.441406 62.179688 206.949219 L 58.007812 211.121094 C 56.605469 212.523438 54.195312 211.488281 54.292969 209.46875 C 54.328125 208.910156 54.589844 208.390625 54.992188 207.992188 L 74.125 188.859375 C 74.375 188.605469 74.507812 188.273438 74.507812 187.945312 C 74.507812 187.578125 74.34375 187.210938 74.035156 186.949219 C 73.511719 186.511719 72.726562 186.609375 72.246094 187.089844 L 58.007812 201.328125 C 56.609375 202.726562 54.199219 201.691406 54.296875 199.675781 C 54.332031 199.117188 54.589844 198.597656 54.992188 198.195312 L 61.605469 191.585938 C 62.109375 191.082031 62.109375 190.265625 61.601562 189.761719 C 61.097656 189.261719 60.285156 189.261719 59.785156 189.761719 L 52.777344 196.769531 C 52.265625 197.28125 51.523438 197.511719 50.804688 197.363281 C 48.699219 196.933594 48.28125 195.117188 49.796875 193.601562 L 52.753906 190.683594 C 53.003906 190.429688 53.125 190.097656 53.125 189.769531 C 53.125 189.453125 53.015625 189.144531 52.785156 188.898438 C 52.285156 188.363281 51.378906 188.421875 50.859375 188.941406 L 42.980469 196.773438 C 42.46875 197.285156 41.726562 197.511719 41.003906 197.363281 C 38.902344 196.9375 38.472656 195.121094 39.996094 193.605469 L 61.433594 172.15625 C 61.6875 171.90625 61.808594 171.574219 61.808594 171.246094 C 61.808594 170.914062 61.6875 170.582031 61.433594 170.332031 C 60.929688 169.835938 60.121094 169.835938 59.617188 170.332031 L 58.007812 171.9375 C 56.609375 173.339844 54.199219 172.304688 54.296875 170.285156 C 54.332031 169.730469 54.589844 169.207031 54.992188 168.808594 L 66.21875 157.582031 C 66.71875 157.082031 67.453125 156.847656 68.179688 156.988281 C 70.300781 157.398438 70.730469 159.222656 69.203125 160.746094 L 64.515625 165.433594 C 64.265625 165.6875 64.140625 166.019531 64.140625 166.347656 C 64.140625 166.679688 64.265625 167.011719 64.515625 167.261719 C 65.019531 167.765625 65.835938 167.765625 66.332031 167.261719 L 70.742188 162.851562 C 72.140625 161.453125 74.550781 162.496094 74.457031 164.515625 C 74.421875 165.070312 74.160156 165.59375 73.761719 165.984375 L 55.824219 183.960938 C 55.574219 184.214844 55.453125 184.546875 55.453125 184.875 C 55.453125 185.207031 55.574219 185.539062 55.824219 185.789062 C 56.332031 186.292969 57.148438 186.292969 57.652344 185.789062 L 70.644531 172.75 C 72.207031 171.183594 74.046875 171.640625 74.421875 173.816406 C 74.542969 174.523438 74.308594 175.226562 73.816406 175.722656 L 64.671875 184.878906 C 64.167969 185.382812 64.167969 186.195312 64.671875 186.695312 C 65.175781 187.199219 65.988281 187.199219 66.488281 186.695312 L 75.3125 177.875 C 75.8125 177.375 76.542969 177.140625 77.269531 177.28125 C 79.390625 177.695312 79.820312 179.515625 78.292969 181.042969 L 77.199219 182.140625 C 76.945312 182.390625 76.8125 182.722656 76.8125 183.050781 C 76.8125 183.417969 76.976562 183.785156 77.285156 184.046875 C 77.808594 184.480469 78.59375 184.382812 79.074219 183.90625 L 85.039062 177.941406 C 85.433594 177.546875 85.953125 177.273438 86.511719 177.246094 C 88.527344 177.136719 89.574219 179.550781 88.171875 180.957031 L 87.519531 181.605469 C 87.269531 181.859375 87.144531 182.191406 87.144531 182.519531 C 87.144531 182.847656 87.269531 183.183594 87.519531 183.433594 C 88.023438 183.9375 88.839844 183.9375 89.335938 183.433594 L 90.9375 181.839844 C 92.449219 180.328125 94.269531 180.746094 94.695312 182.847656 C 94.847656 183.570312 94.613281 184.308594 94.105469 184.820312 Z M 94.105469 184.820312 " clip-rule="nonzero"/></clipPath><linearGradient x1="221.32022" gradientTransform="matrix(0.270192, 0, 0, 0.270192, 33.994148, 156.948716)" y1="-3.260112" x2="12.907917" gradientUnits="userSpaceOnUse" y2="221.433957" id="8f76057998"><stop stop-opacity="1" stop-color="rgb(0%, 51.799011%, 81.999207%)" offset="0"/><stop stop-opacity="1" stop-color="rgb(0%, 51.799011%, 81.999207%)" offset="0.25"/><stop stop-opacity="1" stop-color="rgb(0%, 51.799011%, 81.999207%)" offset="0.3125"/><stop stop-opacity="1" stop-color="rgb(0.0244141%, 51.638794%, 81.864929%)" offset="0.328125"/><stop stop-opacity="1" stop-color="rgb(0.0793457%, 51.287842%, 81.568909%)" offset="0.335938"/><stop stop-opacity="1" stop-color="rgb(0.140381%, 50.906372%, 81.246948%)" offset="0.34375"/><stop stop-opacity="1" stop-color="rgb(0.201416%, 50.524902%, 80.926514%)" offset="0.351562"/><stop stop-opacity="1" stop-color="rgb(0.260925%, 50.143433%, 80.604553%)" offset="0.359375"/><stop stop-opacity="1" stop-color="rgb(0.32196%, 49.761963%, 80.284119%)" offset="0.367188"/><stop stop-opacity="1" stop-color="rgb(0.38147%, 49.378967%, 79.962158%)" offset="0.375"/><stop stop-opacity="1" stop-color="rgb(0.442505%, 48.997498%, 79.641724%)" offset="0.382812"/><stop stop-opacity="1" stop-color="rgb(0.50354%, 48.616028%, 79.319763%)" offset="0.390625"/><stop stop-opacity="1" stop-color="rgb(0.563049%, 48.234558%, 78.999329%)" offset="0.398438"/><stop stop-opacity="1" stop-color="rgb(0.624084%, 47.853088%, 78.677368%)" offset="0.40625"/><stop stop-opacity="1" stop-color="rgb(0.68512%, 47.470093%, 78.355408%)" offset="0.414062"/><stop stop-opacity="1" stop-color="rgb(0.744629%, 47.088623%, 78.034973%)" offset="0.421875"/><stop stop-opacity="1" stop-color="rgb(0.805664%, 46.707153%, 77.713013%)" offset="0.429688"/><stop stop-opacity="1" stop-color="rgb(0.865173%, 46.325684%, 77.392578%)" offset="0.4375"/><stop stop-opacity="1" stop-color="rgb(0.926208%, 45.944214%, 77.070618%)" offset="0.445312"/><stop stop-opacity="1" stop-color="rgb(0.987244%, 45.562744%, 76.750183%)" offset="0.453125"/><stop stop-opacity="1" stop-color="rgb(1.046753%, 45.179749%, 76.428223%)" offset="0.460937"/><stop stop-opacity="1" stop-color="rgb(1.107788%, 44.798279%, 76.106262%)" offset="0.462111"/><stop stop-opacity="1" stop-color="rgb(1.138306%, 44.607544%, 75.946045%)" offset="0.46875"/><stop stop-opacity="1" stop-color="rgb(1.168823%, 44.416809%, 75.785828%)" offset="0.476562"/><stop stop-opacity="1" stop-color="rgb(1.228333%, 44.035339%, 75.463867%)" offset="0.484375"/><stop stop-opacity="1" stop-color="rgb(1.289368%, 43.65387%, 75.143433%)" offset="0.492188"/><stop stop-opacity="1" stop-color="rgb(1.348877%, 43.270874%, 74.821472%)" offset="0.5"/><stop stop-opacity="1" stop-color="rgb(1.409912%, 42.889404%, 74.501038%)" offset="0.507812"/><stop stop-opacity="1" stop-color="rgb(1.470947%, 42.507935%, 74.179077%)" offset="0.515625"/><stop stop-opacity="1" stop-color="rgb(1.530457%, 42.126465%, 73.858643%)" offset="0.523438"/><stop stop-opacity="1" stop-color="rgb(1.591492%, 41.744995%, 73.536682%)" offset="0.53125"/><stop stop-opacity="1" stop-color="rgb(1.652527%, 41.362%, 73.214722%)" offset="0.537889"/><stop stop-opacity="1" stop-color="rgb(1.683044%, 41.171265%, 73.054504%)" offset="0.539062"/><stop stop-opacity="1" stop-color="rgb(1.712036%, 40.98053%, 72.894287%)" offset="0.546875"/><stop stop-opacity="1" stop-color="rgb(1.773071%, 40.59906%, 72.572327%)" offset="0.554688"/><stop stop-opacity="1" stop-color="rgb(1.832581%, 40.21759%, 72.251892%)" offset="0.5625"/><stop stop-opacity="1" stop-color="rgb(1.893616%, 39.836121%, 71.929932%)" offset="0.570312"/><stop stop-opacity="1" stop-color="rgb(1.954651%, 39.454651%, 71.609497%)" offset="0.578125"/><stop stop-opacity="1" stop-color="rgb(2.01416%, 39.071655%, 71.287537%)" offset="0.585938"/><stop stop-opacity="1" stop-color="rgb(2.075195%, 38.690186%, 70.965576%)" offset="0.59375"/><stop stop-opacity="1" stop-color="rgb(2.13623%, 38.308716%, 70.645142%)" offset="0.601562"/><stop stop-opacity="1" stop-color="rgb(2.19574%, 37.927246%, 70.323181%)" offset="0.609375"/><stop stop-opacity="1" stop-color="rgb(2.256775%, 37.545776%, 70.002747%)" offset="0.617188"/><stop stop-opacity="1" stop-color="rgb(2.316284%, 37.162781%, 69.680786%)" offset="0.625"/><stop stop-opacity="1" stop-color="rgb(2.377319%, 36.781311%, 69.360352%)" offset="0.632812"/><stop stop-opacity="1" stop-color="rgb(2.438354%, 36.399841%, 69.038391%)" offset="0.640625"/><stop stop-opacity="1" stop-color="rgb(2.497864%, 36.018372%, 68.717957%)" offset="0.648438"/><stop stop-opacity="1" stop-color="rgb(2.558899%, 35.636902%, 68.395996%)" offset="0.65625"/><stop stop-opacity="1" stop-color="rgb(2.619934%, 35.253906%, 68.074036%)" offset="0.664062"/><stop stop-opacity="1" stop-color="rgb(2.679443%, 34.872437%, 67.753601%)" offset="0.671875"/><stop stop-opacity="1" stop-color="rgb(2.740479%, 34.490967%, 67.431641%)" offset="0.679688"/><stop stop-opacity="1" stop-color="rgb(2.801514%, 34.109497%, 67.111206%)" offset="0.6875"/><stop stop-opacity="1" stop-color="rgb(2.861023%, 33.728027%, 66.789246%)" offset="0.695312"/><stop stop-opacity="1" stop-color="rgb(2.922058%, 33.345032%, 66.468811%)" offset="0.703125"/><stop stop-opacity="1" stop-color="rgb(2.981567%, 32.963562%, 66.146851%)" offset="0.710938"/><stop stop-opacity="1" stop-color="rgb(3.042603%, 32.582092%, 65.82489%)" offset="0.71875"/><stop stop-opacity="1" stop-color="rgb(3.103638%, 32.200623%, 65.504456%)" offset="0.726562"/><stop stop-opacity="1" stop-color="rgb(3.163147%, 31.819153%, 65.182495%)" offset="0.734375"/><stop stop-opacity="1" stop-color="rgb(3.224182%, 31.437683%, 64.862061%)" offset="0.742188"/><stop stop-opacity="1" stop-color="rgb(3.285217%, 31.054688%, 64.5401%)" offset="0.75"/><stop stop-opacity="1" stop-color="rgb(3.344727%, 30.673218%, 64.219666%)" offset="0.757812"/><stop stop-opacity="1" stop-color="rgb(3.405762%, 30.291748%, 63.897705%)" offset="0.765625"/><stop stop-opacity="1" stop-color="rgb(3.465271%, 29.910278%, 63.577271%)" offset="0.773437"/><stop stop-opacity="1" stop-color="rgb(3.526306%, 29.528809%, 63.25531%)" offset="0.78125"/><stop stop-opacity="1" stop-color="rgb(3.587341%, 29.145813%, 62.93335%)" offset="0.789062"/><stop stop-opacity="1" stop-color="rgb(3.646851%, 28.764343%, 62.612915%)" offset="0.796875"/><stop stop-opacity="1" stop-color="rgb(3.707886%, 28.382874%, 62.290955%)" offset="0.804687"/><stop stop-opacity="1" stop-color="rgb(3.768921%, 28.001404%, 61.97052%)" offset="0.8125"/><stop stop-opacity="1" stop-color="rgb(3.82843%, 27.619934%, 61.64856%)" offset="0.820312"/><stop stop-opacity="1" stop-color="rgb(3.889465%, 27.236938%, 61.328125%)" offset="0.828125"/><stop stop-opacity="1" stop-color="rgb(3.948975%, 26.855469%, 61.006165%)" offset="0.835938"/><stop stop-opacity="1" stop-color="rgb(4.01001%, 26.473999%, 60.684204%)" offset="0.84375"/><stop stop-opacity="1" stop-color="rgb(4.071045%, 26.092529%, 60.36377%)" offset="0.851562"/><stop stop-opacity="1" stop-color="rgb(4.130554%, 25.71106%, 60.041809%)" offset="0.859375"/><stop stop-opacity="1" stop-color="rgb(4.191589%, 25.32959%, 59.721375%)" offset="0.867188"/><stop stop-opacity="1" stop-color="rgb(4.252625%, 24.946594%, 59.399414%)" offset="0.875"/><stop stop-opacity="1" stop-color="rgb(4.312134%, 24.565125%, 59.078979%)" offset="0.882812"/><stop stop-opacity="1" stop-color="rgb(4.373169%, 24.183655%, 58.757019%)" offset="0.890625"/><stop stop-opacity="1" stop-color="rgb(4.432678%, 23.802185%, 58.436584%)" offset="0.898438"/><stop stop-opacity="1" stop-color="rgb(4.493713%, 23.420715%, 58.114624%)" offset="0.90625"/><stop stop-opacity="1" stop-color="rgb(4.554749%, 23.03772%, 57.792664%)" offset="0.914062"/><stop stop-opacity="1" stop-color="rgb(4.614258%, 22.65625%, 57.472229%)" offset="0.921875"/><stop stop-opacity="1" stop-color="rgb(4.675293%, 22.27478%, 57.150269%)" offset="0.929687"/><stop stop-opacity="1" stop-color="rgb(4.736328%, 21.893311%, 56.829834%)" offset="0.9375"/><stop stop-opacity="1" stop-color="rgb(4.795837%, 21.511841%, 56.507874%)" offset="0.945313"/><stop stop-opacity="1" stop-color="rgb(4.856873%, 21.128845%, 56.187439%)" offset="0.953125"/><stop stop-opacity="1" stop-color="rgb(4.916382%, 20.747375%, 55.865479%)" offset="0.960938"/><stop stop-opacity="1" stop-color="rgb(4.977417%, 20.365906%, 55.543518%)" offset="0.96875"/><stop stop-opacity="1" stop-color="rgb(5.038452%, 19.984436%, 55.223083%)" offset="0.976562"/><stop stop-opacity="1" stop-color="rgb(5.084229%, 19.696045%, 54.980469%)" offset="0.984375"/><stop stop-opacity="1" stop-color="rgb(5.099487%, 19.599915%, 54.899597%)" offset="1"/></linearGradient><clipPath id="79ab54ddd8"><path d="M 88 190 L 94.742188 190 L 94.742188 198 L 88 198 Z M 88 190 " clip-rule="nonzero"/></clipPath><clipPath id="73a94a0abb"><path d="M 91.03125 191.542969 L 88.875 193.699219 C 87.503906 195.066406 88.476562 197.410156 90.414062 197.410156 C 90.988281 197.410156 91.542969 197.179688 91.949219 196.773438 L 94.105469 194.617188 C 94.515625 194.207031 94.746094 193.65625 94.746094 193.078125 C 94.742188 191.140625 92.402344 190.171875 91.03125 191.542969 Z M 91.03125 191.542969 " clip-rule="nonzero"/></clipPath><linearGradient x1="225.716732" gradientTransform="matrix(0.270192, 0, 0, 0.270192, 33.994148, 156.948716)" y1="123.777812" x2="199.972543" gradientUnits="userSpaceOnUse" y2="151.533209" id="449ff8388d"><stop stop-opacity="1" stop-color="rgb(0%, 51.799011%, 81.999207%)" offset="0"/><stop stop-opacity="1" stop-color="rgb(0.012207%, 51.713562%, 81.92749%)" offset="0.25"/><stop stop-opacity="1" stop-color="rgb(0.0549316%, 51.44043%, 81.698608%)" offset="0.3125"/><stop stop-opacity="1" stop-color="rgb(0.114441%, 51.063538%, 81.381226%)" offset="0.375"/><stop stop-opacity="1" stop-color="rgb(0.175476%, 50.686646%, 81.063843%)" offset="0.4375"/><stop stop-opacity="1" stop-color="rgb(0.234985%, 50.309753%, 80.744934%)" offset="0.481157"/><stop stop-opacity="1" stop-color="rgb(0.265503%, 50.120544%, 80.586243%)" offset="0.5"/><stop stop-opacity="1" stop-color="rgb(0.294495%, 49.931335%, 80.427551%)" offset="0.518843"/><stop stop-opacity="1" stop-color="rgb(0.325012%, 49.743652%, 80.26886%)" offset="0.5625"/><stop stop-opacity="1" stop-color="rgb(0.354004%, 49.554443%, 80.110168%)" offset="0.625"/><stop stop-opacity="1" stop-color="rgb(0.413513%, 49.177551%, 79.792786%)" offset="0.6875"/><stop stop-opacity="1" stop-color="rgb(0.473022%, 48.800659%, 79.475403%)" offset="0.75"/><stop stop-opacity="1" stop-color="rgb(0.532532%, 48.422241%, 79.15802%)" offset="0.8125"/><stop stop-opacity="1" stop-color="rgb(0.593567%, 48.045349%, 78.840637%)" offset="0.875"/><stop stop-opacity="1" stop-color="rgb(0.653076%, 47.668457%, 78.523254%)" offset="0.9375"/><stop stop-opacity="1" stop-color="rgb(0.712585%, 47.291565%, 78.205872%)" offset="1"/></linearGradient><clipPath id="2d673c177f"><path d="M 67 211 L 75 211 L 75 217.699219 L 67 217.699219 Z M 67 211 " clip-rule="nonzero"/></clipPath><clipPath id="395f046e1c"><path d="M 70.742188 211.832031 L 68.585938 213.984375 C 67.214844 215.355469 68.183594 217.699219 70.121094 217.699219 C 70.695312 217.699219 71.25 217.46875 71.660156 217.0625 L 73.816406 214.90625 C 74.222656 214.496094 74.453125 213.941406 74.453125 213.367188 C 74.453125 211.429688 72.109375 210.460938 70.742188 211.832031 Z M 70.742188 211.832031 " clip-rule="nonzero"/></clipPath><linearGradient x1="150.624293" gradientTransform="matrix(0.270192, 0, 0, 0.270192, 33.994148, 156.948716)" y1="198.870183" x2="124.877801" gradientUnits="userSpaceOnUse" y2="226.628066" id="625bd3cc5c"><stop stop-opacity="1" stop-color="rgb(2.467346%, 36.218262%, 68.885803%)" offset="0"/><stop stop-opacity="1" stop-color="rgb(2.496338%, 36.029053%, 68.727112%)" offset="0.0625"/><stop stop-opacity="1" stop-color="rgb(2.555847%, 35.652161%, 68.409729%)" offset="0.125"/><stop stop-opacity="1" stop-color="rgb(2.615356%, 35.275269%, 68.092346%)" offset="0.1875"/><stop stop-opacity="1" stop-color="rgb(2.674866%, 34.896851%, 67.774963%)" offset="0.25"/><stop stop-opacity="1" stop-color="rgb(2.735901%, 34.519958%, 67.457581%)" offset="0.3125"/><stop stop-opacity="1" stop-color="rgb(2.79541%, 34.143066%, 67.140198%)" offset="0.375"/><stop stop-opacity="1" stop-color="rgb(2.854919%, 33.766174%, 66.822815%)" offset="0.4375"/><stop stop-opacity="1" stop-color="rgb(2.914429%, 33.387756%, 66.505432%)" offset="0.481204"/><stop stop-opacity="1" stop-color="rgb(2.944946%, 33.200073%, 66.346741%)" offset="0.5"/><stop stop-opacity="1" stop-color="rgb(2.973938%, 33.010864%, 66.186523%)" offset="0.518796"/><stop stop-opacity="1" stop-color="rgb(3.004456%, 32.823181%, 66.027832%)" offset="0.5625"/><stop stop-opacity="1" stop-color="rgb(3.033447%, 32.633972%, 65.869141%)" offset="0.625"/><stop stop-opacity="1" stop-color="rgb(3.094482%, 32.25708%, 65.551758%)" offset="0.6875"/><stop stop-opacity="1" stop-color="rgb(3.153992%, 31.878662%, 65.234375%)" offset="0.75"/><stop stop-opacity="1" stop-color="rgb(3.213501%, 31.50177%, 64.916992%)" offset="0.8125"/><stop stop-opacity="1" stop-color="rgb(3.27301%, 31.124878%, 64.599609%)" offset="0.875"/><stop stop-opacity="1" stop-color="rgb(3.33252%, 30.747986%, 64.282227%)" offset="0.9375"/><stop stop-opacity="1" stop-color="rgb(3.392029%, 30.369568%, 63.964844%)" offset="1"/></linearGradient></defs><g clip-path="url(#57d5c6f84b)"><g clip-path="url(#ae960881ca)"><path fill="url(#25b229a950)" d="M 33.996094 177.238281 L 33.996094 183.820312 L 40.574219 183.820312 L 40.574219 177.238281 Z M 33.996094 177.238281 " fill-rule="nonzero"/></g></g><g clip-path="url(#b05e973681)"><g clip-path="url(#5d63bfd28b)"><path fill="url(#fce628f409)" d="M 54.292969 156.949219 L 54.292969 163.519531 L 60.863281 163.519531 L 60.863281 156.949219 Z M 54.292969 156.949219 " fill-rule="nonzero"/></g></g><g clip-path="url(#fa4b1d9ce2)"><g clip-path="url(#d8408bddfb)"><path fill="url(#502dd131a2)" d="M 33.996094 177.238281 L 33.996094 193.613281 L 50.371094 193.613281 L 50.371094 177.238281 Z M 33.996094 177.238281 " fill-rule="nonzero"/></g></g><g clip-path="url(#9f18b9ccf8)"><g clip-path="url(#70c21ecad4)"><path fill="url(#8f76057998)" d="M 38.472656 156.949219 L 38.472656 217.699219 L 94.742188 217.699219 L 94.742188 156.949219 Z M 38.472656 156.949219 " fill-rule="nonzero"/></g></g><g clip-path="url(#79ab54ddd8)"><g clip-path="url(#73a94a0abb)"><path fill="url(#449ff8388d)" d="M 87.503906 190.171875 L 87.503906 197.410156 L 94.742188 197.410156 L 94.742188 190.171875 Z M 87.503906 190.171875 " fill-rule="nonzero"/></g></g><g clip-path="url(#2d673c177f)"><g clip-path="url(#395f046e1c)"><path fill="url(#625bd3cc5c)" d="M 67.214844 210.460938 L 67.214844 217.699219 L 74.453125 217.699219 L 74.453125 210.460938 Z M 67.214844 210.460938 " fill-rule="nonzero"/></g></g><g fill="#545454" fill-opacity="1"><g transform="translate(91.849138, 194.841267)"><g><path d="M 13.566406 0 L 13.566406 -4.3125 L 6.722656 -4.3125 L 6.722656 -8.621094 L 12.390625 -8.621094 L 12.390625 -12.933594 L 6.722656 -12.933594 L 6.722656 -17.242188 L 13.203125 -17.242188 L 13.203125 -21.554688 L 2.410156 -21.554688 L 2.410156 0 Z M 13.566406 0 "/></g></g></g><g fill="#545454" fill-opacity="1"><g transform="translate(107.796856, 194.841267)"><g><path d="M 1.417969 -1.386719 C 4.339844 0.121094 7.023438 0.269531 8.230469 0.179688 C 12.269531 -0.03125 14.742188 -2.773438 14.742188 -6.359375 C 14.742188 -9.796875 11.847656 -11.726562 8.5 -12.964844 C 7.265625 -13.386719 6.210938 -13.929688 6.089844 -15.132812 C 6 -16.339844 6.691406 -17.453125 8.230469 -17.546875 C 8.894531 -17.574219 10.25 -17.605469 12.632812 -16.640625 L 13.175781 -20.800781 C 10.402344 -21.765625 8.921875 -21.765625 7.808594 -21.707031 C 4.21875 -21.523438 1.71875 -18.75 1.71875 -15.132812 C 1.71875 -11.515625 4.734375 -9.796875 8.109375 -8.5625 C 9.316406 -8.140625 10.25 -7.597656 10.339844 -6.359375 C 10.460938 -5.183594 9.375 -4.28125 8.109375 -4.191406 C 7.113281 -4.101562 4.429688 -4.160156 1.960938 -5.910156 Z M 1.417969 -1.386719 "/></g></g></g><g fill="#545454" fill-opacity="1"><g transform="translate(124.498241, 194.841267)"><g><path d="M 6.722656 0 L 6.722656 -8.230469 L 10.882812 -8.230469 C 19.234375 -8.230469 19.265625 -21.523438 10.882812 -21.523438 L 2.410156 -21.523438 L 2.410156 0 Z M 6.722656 -12.421875 L 6.722656 -17.242188 L 10.519531 -17.242188 C 13.414062 -17.242188 13.414062 -12.421875 10.519531 -12.421875 Z M 6.722656 -12.421875 "/></g></g></g><g fill="#545454" fill-opacity="1"><g transform="translate(143.430495, 194.841267)"><g><path d="M 13.566406 0 L 13.566406 -4.3125 L 6.722656 -4.3125 L 6.722656 -8.621094 L 12.390625 -8.621094 L 12.390625 -12.933594 L 6.722656 -12.933594 L 6.722656 -17.242188 L 13.203125 -17.242188 L 13.203125 -21.554688 L 2.410156 -21.554688 L 2.410156 0 Z M 13.566406 0 "/></g></g></g><g fill="#545454" fill-opacity="1"><g transform="translate(159.378215, 194.841267)"><g><path d="M 16.128906 -16.550781 L 16.640625 -20.980469 C 15.34375 -21.554688 13.898438 -21.828125 12.390625 -21.828125 C -2.199219 -21.828125 -2.230469 0.0585938 12.390625 0.0585938 C 13.898438 0.0585938 15.796875 -0.300781 17.125 -0.84375 L 16.550781 -5.304688 C 15.738281 -4.882812 14.257812 -4.339844 12.390625 -4.339844 C 3.859375 -4.339844 3.859375 -17.484375 12.390625 -17.484375 C 14.257812 -17.484375 15.316406 -16.972656 16.128906 -16.550781 Z M 16.128906 -16.550781 "/></g></g></g><g fill="#545454" fill-opacity="1"><g transform="translate(178.280324, 194.841267)"><g><path d="M 6.722656 0 L 6.722656 -21.554688 L 2.410156 -21.554688 L 2.410156 0 Z M 6.722656 0 "/></g></g></g><g fill="#545454" fill-opacity="1"><g transform="translate(188.198658, 194.841267)"><g><path d="M 0.480469 0 L 5.367188 0 L 6.210938 -2.320312 L 13.355469 -2.320312 L 14.230469 0 L 19.082031 0 L 10.007812 -22.339844 L 9.554688 -22.339844 Z M 7.777344 -6.359375 L 9.796875 -11.96875 L 11.757812 -6.359375 Z M 7.777344 -6.359375 "/></g></g></g><g fill="#545454" fill-opacity="1"><g transform="translate(208.638259, 194.841267)"><g><path d="M 2.410156 -21.554688 L 2.410156 0 L 13.566406 0 L 13.566406 -4.3125 L 6.722656 -4.3125 L 6.722656 -21.554688 Z M 2.410156 -21.554688 "/></g></g></g><g fill="#545454" fill-opacity="1"><g transform="translate(224.254361, 194.841267)"><g><path d="M 6.722656 0 L 6.722656 -21.554688 L 2.410156 -21.554688 L 2.410156 0 Z M 6.722656 0 "/></g></g></g><g fill="#545454" fill-opacity="1"><g transform="translate(234.172694, 194.841267)"><g><path d="M 8.832031 -21.554688 L 2.410156 -21.554688 L 2.410156 0 L 8.832031 0 C 23.183594 0 23.183594 -21.554688 8.832031 -21.554688 Z M 8.832031 -17.242188 C 17.214844 -17.242188 17.214844 -4.3125 8.832031 -4.3125 L 6.722656 -4.3125 L 6.722656 -17.242188 Z M 8.832031 -17.242188 "/></g></g></g><g fill="#545454" fill-opacity="1"><g transform="translate(256.149791, 194.841267)"><g><path d="M 0.480469 0 L 5.367188 0 L 6.210938 -2.320312 L 13.355469 -2.320312 L 14.230469 0 L 19.082031 0 L 10.007812 -22.339844 L 9.554688 -22.339844 Z M 7.777344 -6.359375 L 9.796875 -11.96875 L 11.757812 -6.359375 Z M 7.777344 -6.359375 "/></g></g></g><g fill="#545454" fill-opacity="1"><g transform="translate(276.589392, 194.841267)"><g><path d="M 8.832031 -21.554688 L 2.410156 -21.554688 L 2.410156 0 L 8.832031 0 C 23.183594 0 23.183594 -21.554688 8.832031 -21.554688 Z M 8.832031 -17.242188 C 17.214844 -17.242188 17.214844 -4.3125 8.832031 -4.3125 L 6.722656 -4.3125 L 6.722656 -17.242188 Z M 8.832031 -17.242188 "/></g></g></g><g fill="#545454" fill-opacity="1"><g transform="translate(298.56649, 194.841267)"><g><path d="M 13.566406 0 L 13.566406 -4.3125 L 6.722656 -4.3125 L 6.722656 -8.621094 L 12.390625 -8.621094 L 12.390625 -12.933594 L 6.722656 -12.933594 L 6.722656 -17.242188 L 13.203125 -17.242188 L 13.203125 -21.554688 L 2.410156 -21.554688 L 2.410156 0 Z M 13.566406 0 "/></g></g></g><g fill="#545454" fill-opacity="1"><g transform="translate(314.514205, 194.841267)"><g><path d="M 1.417969 -1.386719 C 4.339844 0.121094 7.023438 0.269531 8.230469 0.179688 C 12.269531 -0.03125 14.742188 -2.773438 14.742188 -6.359375 C 14.742188 -9.796875 11.847656 -11.726562 8.5 -12.964844 C 7.265625 -13.386719 6.210938 -13.929688 6.089844 -15.132812 C 6 -16.339844 6.691406 -17.453125 8.230469 -17.546875 C 8.894531 -17.574219 10.25 -17.605469 12.632812 -16.640625 L 13.175781 -20.800781 C 10.402344 -21.765625 8.921875 -21.765625 7.808594 -21.707031 C 4.21875 -21.523438 1.71875 -18.75 1.71875 -15.132812 C 1.71875 -11.515625 4.734375 -9.796875 8.109375 -8.5625 C 9.316406 -8.140625 10.25 -7.597656 10.339844 -6.359375 C 10.460938 -5.183594 9.375 -4.28125 8.109375 -4.191406 C 7.113281 -4.101562 4.429688 -4.160156 1.960938 -5.910156 Z M 1.417969 -1.386719 "/></g></g></g><g fill="#737373" fill-opacity="1"><g transform="translate(138.386492, 211.745015)"><g><path d="M 4.203125 0.1875 C 3.023438 0.1875 2.144531 -0.125 1.5625 -0.75 C 0.988281 -1.382812 0.679688 -2.382812 0.640625 -3.75 L 2.984375 -4.09375 C 2.992188 -3.3125 3.085938 -2.75 3.265625 -2.40625 C 3.441406 -2.0625 3.707031 -1.890625 4.0625 -1.890625 C 4.519531 -1.890625 4.75 -2.191406 4.75 -2.796875 C 4.75 -3.273438 4.640625 -3.6875 4.421875 -4.03125 C 4.203125 -4.375 3.859375 -4.75 3.390625 -5.15625 L 2.328125 -6.078125 C 1.796875 -6.523438 1.382812 -7 1.09375 -7.5 C 0.800781 -8.007812 0.65625 -8.613281 0.65625 -9.3125 C 0.65625 -10.34375 0.960938 -11.140625 1.578125 -11.703125 C 2.191406 -12.265625 3.039062 -12.546875 4.125 -12.546875 C 5.300781 -12.546875 6.097656 -12.203125 6.515625 -11.515625 C 6.941406 -10.835938 7.171875 -10.007812 7.203125 -9.03125 L 4.84375 -8.734375 C 4.820312 -9.378906 4.757812 -9.84375 4.65625 -10.125 C 4.5625 -10.40625 4.351562 -10.546875 4.03125 -10.546875 C 3.800781 -10.546875 3.617188 -10.445312 3.484375 -10.25 C 3.359375 -10.050781 3.296875 -9.828125 3.296875 -9.578125 C 3.296875 -9.160156 3.390625 -8.804688 3.578125 -8.515625 C 3.765625 -8.234375 4.070312 -7.910156 4.5 -7.546875 L 5.515625 -6.640625 C 6.128906 -6.128906 6.601562 -5.582031 6.9375 -5 C 7.269531 -4.414062 7.4375 -3.726562 7.4375 -2.9375 C 7.4375 -2.351562 7.300781 -1.820312 7.03125 -1.34375 C 6.757812 -0.875 6.378906 -0.5 5.890625 -0.21875 C 5.410156 0.0507812 4.847656 0.1875 4.203125 0.1875 Z M 4.203125 0.1875 "/></g></g></g><g fill="#737373" fill-opacity="1"><g transform="translate(148.377502, 211.745015)"><g><path d="M 2.65625 -12.375 L 5.78125 -12.375 L 8.078125 0 L 5.5625 0 L 5.15625 -2.609375 L 3.328125 -2.609375 L 2.90625 0 L 0.328125 0 Z M 4.890625 -4.25 L 4.234375 -9.078125 L 3.578125 -4.25 Z M 4.890625 -4.25 "/></g></g></g><g fill="#737373" fill-opacity="1"><g transform="translate(158.933692, 211.745015)"><g><path d="M 4.5 0.1875 C 3.570312 0.1875 2.835938 0.0351562 2.296875 -0.265625 C 1.753906 -0.566406 1.375 -1.007812 1.15625 -1.59375 C 0.9375 -2.175781 0.828125 -2.921875 0.828125 -3.828125 L 0.828125 -12.375 L 3.53125 -12.375 L 3.53125 -3.421875 C 3.53125 -2.921875 3.59375 -2.519531 3.71875 -2.21875 C 3.84375 -1.925781 4.101562 -1.78125 4.5 -1.78125 C 4.882812 -1.78125 5.132812 -1.925781 5.25 -2.21875 C 5.375 -2.519531 5.4375 -2.921875 5.4375 -3.421875 L 5.4375 -12.375 L 8.15625 -12.375 L 8.15625 -3.828125 C 8.15625 -2.921875 8.039062 -2.175781 7.8125 -1.59375 C 7.59375 -1.007812 7.21875 -0.566406 6.6875 -0.265625 C 6.15625 0.0351562 5.425781 0.1875 4.5 0.1875 Z M 4.640625 -16.421875 L 7.171875 -16.421875 L 5.25 -13.359375 L 3.671875 -13.359375 Z M 4.640625 -16.421875 "/></g></g></g><g fill="#737373" fill-opacity="1"><g transform="translate(170.055079, 211.745015)"><g><path d="M 0.921875 -12.375 L 4.046875 -12.375 C 5.117188 -12.375 5.953125 -12.238281 6.546875 -11.96875 C 7.148438 -11.707031 7.578125 -11.296875 7.828125 -10.734375 C 8.078125 -10.171875 8.203125 -9.414062 8.203125 -8.46875 L 8.203125 -3.96875 C 8.203125 -3.007812 8.078125 -2.242188 7.828125 -1.671875 C 7.578125 -1.109375 7.15625 -0.6875 6.5625 -0.40625 C 5.96875 -0.132812 5.140625 0 4.078125 0 L 0.921875 0 Z M 4.078125 -1.890625 C 4.472656 -1.890625 4.765625 -1.945312 4.953125 -2.0625 C 5.140625 -2.1875 5.257812 -2.359375 5.3125 -2.578125 C 5.363281 -2.796875 5.390625 -3.117188 5.390625 -3.546875 L 5.390625 -8.9375 C 5.390625 -9.332031 5.359375 -9.632812 5.296875 -9.84375 C 5.242188 -10.050781 5.125 -10.207031 4.9375 -10.3125 C 4.75 -10.414062 4.457031 -10.46875 4.0625 -10.46875 L 3.65625 -10.46875 L 3.65625 -1.890625 Z M 4.078125 -1.890625 "/></g></g></g><g fill="#737373" fill-opacity="1"><g transform="translate(181.145909, 211.745015)"><g><path d="M 0.921875 -12.375 L 6.484375 -12.375 L 6.484375 -10.515625 L 3.65625 -10.515625 L 3.65625 -7.4375 L 5.8125 -7.4375 L 5.8125 -5.546875 L 3.65625 -5.546875 L 3.65625 -1.84375 L 6.515625 -1.84375 L 6.515625 0 L 0.921875 0 Z M 0.921875 -12.375 "/></g></g></g><g fill="#737373" fill-opacity="1"><g transform="translate(190.11346, 211.745015)"><g/></g></g><g fill="#737373" fill-opacity="1"><g transform="translate(196.163423, 211.745015)"><g><path d="M 0.9375 -12.375 L 3.671875 -12.375 L 3.671875 0 L 0.9375 0 Z M 0.9375 -12.375 "/></g></g></g><g fill="#737373" fill-opacity="1"><g transform="translate(202.900779, 211.745015)"><g><path d="M 0.921875 -12.375 L 2.84375 -12.375 L 5.375 -6.421875 L 5.375 -12.375 L 7.640625 -12.375 L 7.640625 0 L 5.796875 0 L 3.25 -6.421875 L 3.25 0 L 0.921875 0 Z M 0.921875 -12.375 "/></g></g></g><g fill="#737373" fill-opacity="1"><g transform="translate(213.609723, 211.745015)"><g><path d="M 2.03125 -10.34375 L 0.171875 -10.34375 L 0.171875 -12.375 L 6.625 -12.375 L 6.625 -10.34375 L 4.78125 -10.34375 L 4.78125 0 L 2.03125 0 Z M 2.03125 -10.34375 "/></g></g></g><g fill="#737373" fill-opacity="1"><g transform="translate(222.546738, 211.745015)"><g><path d="M 0.921875 -12.375 L 6.484375 -12.375 L 6.484375 -10.515625 L 3.65625 -10.515625 L 3.65625 -7.4375 L 5.8125 -7.4375 L 5.8125 -5.546875 L 3.65625 -5.546875 L 3.65625 -1.84375 L 6.515625 -1.84375 L 6.515625 0 L 0.921875 0 Z M 0.921875 -12.375 "/></g></g></g><g fill="#737373" fill-opacity="1"><g transform="translate(231.514294, 211.745015)"><g><path d="M 4.140625 0.1875 C 2.921875 0.1875 2.050781 -0.179688 1.53125 -0.921875 C 1.007812 -1.671875 0.75 -2.726562 0.75 -4.09375 L 0.75 -8.25 C 0.75 -9.644531 1.03125 -10.707031 1.59375 -11.4375 C 2.15625 -12.175781 3.113281 -12.546875 4.46875 -12.546875 C 5.757812 -12.546875 6.679688 -12.226562 7.234375 -11.59375 C 7.796875 -10.96875 8.078125 -10.078125 8.078125 -8.921875 L 8.078125 -8.125 L 5.40625 -8.125 L 5.40625 -9.140625 C 5.40625 -9.628906 5.347656 -10 5.234375 -10.25 C 5.128906 -10.5 4.882812 -10.625 4.5 -10.625 C 4.09375 -10.625 3.832031 -10.484375 3.71875 -10.203125 C 3.601562 -9.929688 3.546875 -9.550781 3.546875 -9.0625 L 3.546875 -3.328125 C 3.546875 -2.835938 3.617188 -2.453125 3.765625 -2.171875 C 3.910156 -1.890625 4.175781 -1.75 4.5625 -1.75 C 5.28125 -1.75 5.640625 -2.285156 5.640625 -3.359375 L 5.640625 -4.8125 L 4.515625 -4.8125 L 4.515625 -6.421875 L 8.09375 -6.421875 L 8.09375 0 L 6.296875 0 L 6.140625 -1.03125 C 5.753906 -0.21875 5.085938 0.1875 4.140625 0.1875 Z M 4.140625 0.1875 "/></g></g></g><g fill="#737373" fill-opacity="1"><g transform="translate(242.544029, 211.745015)"><g><path d="M 0.921875 -12.375 L 4.328125 -12.375 C 5.679688 -12.375 6.703125 -12.132812 7.390625 -11.65625 C 8.085938 -11.175781 8.4375 -10.328125 8.4375 -9.109375 C 8.4375 -8.285156 8.328125 -7.628906 8.109375 -7.140625 C 7.898438 -6.648438 7.503906 -6.265625 6.921875 -5.984375 L 8.625 0 L 5.796875 0 L 4.4375 -5.546875 L 3.65625 -5.546875 L 3.65625 0 L 0.921875 0 Z M 4.421875 -7.125 C 4.960938 -7.125 5.34375 -7.265625 5.5625 -7.546875 C 5.789062 -7.835938 5.90625 -8.273438 5.90625 -8.859375 C 5.90625 -9.421875 5.800781 -9.84375 5.59375 -10.125 C 5.382812 -10.40625 5.03125 -10.546875 4.53125 -10.546875 L 3.65625 -10.546875 L 3.65625 -7.125 Z M 4.421875 -7.125 "/></g></g></g><g fill="#737373" fill-opacity="1"><g transform="translate(253.848715, 211.745015)"><g><path d="M 2.65625 -12.375 L 5.78125 -12.375 L 8.078125 0 L 5.5625 0 L 5.15625 -2.609375 L 3.328125 -2.609375 L 2.90625 0 L 0.328125 0 Z M 4.890625 -4.25 L 4.234375 -9.078125 L 3.578125 -4.25 Z M 4.890625 -4.25 "/></g></g></g><g fill="#737373" fill-opacity="1"><g transform="translate(264.404909, 211.745015)"><g><path d="M 0.921875 -12.375 L 4.046875 -12.375 C 5.117188 -12.375 5.953125 -12.238281 6.546875 -11.96875 C 7.148438 -11.707031 7.578125 -11.296875 7.828125 -10.734375 C 8.078125 -10.171875 8.203125 -9.414062 8.203125 -8.46875 L 8.203125 -3.96875 C 8.203125 -3.007812 8.078125 -2.242188 7.828125 -1.671875 C 7.578125 -1.109375 7.15625 -0.6875 6.5625 -0.40625 C 5.96875 -0.132812 5.140625 0 4.078125 0 L 0.921875 0 Z M 4.078125 -1.890625 C 4.472656 -1.890625 4.765625 -1.945312 4.953125 -2.0625 C 5.140625 -2.1875 5.257812 -2.359375 5.3125 -2.578125 C 5.363281 -2.796875 5.390625 -3.117188 5.390625 -3.546875 L 5.390625 -8.9375 C 5.390625 -9.332031 5.359375 -9.632812 5.296875 -9.84375 C 5.242188 -10.050781 5.125 -10.207031 4.9375 -10.3125 C 4.75 -10.414062 4.457031 -10.46875 4.0625 -10.46875 L 3.65625 -10.46875 L 3.65625 -1.890625 Z M 4.078125 -1.890625 "/></g></g></g><g fill="#737373" fill-opacity="1"><g transform="translate(275.495743, 211.745015)"><g><path d="M 2.65625 -12.375 L 5.78125 -12.375 L 8.078125 0 L 5.5625 0 L 5.15625 -2.609375 L 3.328125 -2.609375 L 2.90625 0 L 0.328125 0 Z M 4.890625 -4.25 L 4.234375 -9.078125 L 3.578125 -4.25 Z M 4.890625 -4.25 "/></g></g></g><path stroke-linecap="butt" transform="matrix(0.750123, 0, 0, 0.75, 9.401924, 124.982219)" fill="none" stroke-linejoin="miter" d="M 0.000559625 2.497667 L 474.927683 2.497667 " stroke="#0d328c" stroke-width="5" stroke-opacity="1" stroke-miterlimit="4"/><path stroke-linecap="butt" transform="matrix(0.750123, 0, 0, 0.75, 9.401924, 246.476057)" fill="none" stroke-linejoin="miter" d="M 0.000559625 2.500674 L 474.927683 2.500674 " stroke="#0d328c" stroke-width="5" stroke-opacity="1" stroke-miterlimit="4"/></svg>