<svg xmlns="http://www.w3.org/2000/svg" xmlns:xlink="http://www.w3.org/1999/xlink" width="500" zoomAndPan="magnify" viewBox="0 0 375 374.999991" height="500" preserveAspectRatio="xMidYMid meet" version="1.0"><defs><g/><clipPath id="0dec46f408"><path d="M 30.214844 174 L 36 174 L 36 181 L 30.214844 181 Z M 30.214844 174 " clip-rule="nonzero"/></clipPath><clipPath id="72620d024d"><path d="M 33.789062 179.644531 L 35.234375 178.203125 C 36.550781 176.882812 35.617188 174.625 33.753906 174.625 C 33.199219 174.625 32.664062 174.847656 32.273438 175.242188 L 30.828125 176.683594 C 30.4375 177.078125 30.214844 177.609375 30.214844 178.164062 C 30.214844 180.03125 32.46875 180.964844 33.789062 179.644531 Z M 33.789062 179.644531 " clip-rule="nonzero"/></clipPath><linearGradient x1="22.480055" gradientTransform="matrix(0.260185, 0, 0, 0.260185, 30.214434, 155.089656)" y1="73.346254" x2="-0.931" gradientUnits="userSpaceOnUse" y2="98.586431" id="8e51218d34"><stop stop-opacity="1" stop-color="rgb(2.34375%, 36.997986%, 69.541931%)" offset="0"/><stop stop-opacity="1" stop-color="rgb(2.36969%, 36.825562%, 69.396973%)" offset="0.0625"/><stop stop-opacity="1" stop-color="rgb(2.424622%, 36.482239%, 69.108582%)" offset="0.125"/><stop stop-opacity="1" stop-color="rgb(2.479553%, 36.138916%, 68.82019%)" offset="0.1875"/><stop stop-opacity="1" stop-color="rgb(2.532959%, 35.795593%, 68.530273%)" offset="0.25"/><stop stop-opacity="1" stop-color="rgb(2.587891%, 35.453796%, 68.241882%)" offset="0.3125"/><stop stop-opacity="1" stop-color="rgb(2.642822%, 35.110474%, 67.953491%)" offset="0.375"/><stop stop-opacity="1" stop-color="rgb(2.696228%, 34.767151%, 67.6651%)" offset="0.4375"/><stop stop-opacity="1" stop-color="rgb(2.75116%, 34.423828%, 67.376709%)" offset="0.481202"/><stop stop-opacity="1" stop-color="rgb(2.778625%, 34.25293%, 67.23175%)" offset="0.5"/><stop stop-opacity="1" stop-color="rgb(2.804565%, 34.080505%, 67.086792%)" offset="0.518798"/><stop stop-opacity="1" stop-color="rgb(2.832031%, 33.909607%, 66.943359%)" offset="0.5625"/><stop stop-opacity="1" stop-color="rgb(2.859497%, 33.738708%, 66.798401%)" offset="0.625"/><stop stop-opacity="1" stop-color="rgb(2.914429%, 33.395386%, 66.51001%)" offset="0.6875"/><stop stop-opacity="1" stop-color="rgb(2.967834%, 33.052063%, 66.221619%)" offset="0.75"/><stop stop-opacity="1" stop-color="rgb(3.022766%, 32.70874%, 65.931702%)" offset="0.8125"/><stop stop-opacity="1" stop-color="rgb(3.076172%, 32.365417%, 65.643311%)" offset="0.875"/><stop stop-opacity="1" stop-color="rgb(3.131104%, 32.022095%, 65.354919%)" offset="0.9375"/><stop stop-opacity="1" stop-color="rgb(3.186035%, 31.680298%, 65.066528%)" offset="1"/></linearGradient><clipPath id="9f17d8b0a1"><path d="M 49 155.089844 L 56 155.089844 L 56 161 L 49 161 Z M 49 155.089844 " clip-rule="nonzero"/></clipPath><clipPath id="65054552b9"><path d="M 53.335938 160.097656 L 54.769531 158.664062 C 56.089844 157.34375 55.15625 155.089844 53.289062 155.089844 C 52.734375 155.089844 52.203125 155.3125 51.808594 155.703125 L 50.375 157.136719 C 49.984375 157.53125 49.761719 158.0625 49.761719 158.617188 C 49.761719 160.484375 52.015625 161.417969 53.335938 160.097656 Z M 53.335938 160.097656 " clip-rule="nonzero"/></clipPath><linearGradient x1="97.570936" gradientTransform="matrix(0.260185, 0, 0, 0.260185, 30.214434, 155.089656)" y1="-1.742915" x2="74.198324" gradientUnits="userSpaceOnUse" y2="23.455815" id="d885494a0f"><stop stop-opacity="1" stop-color="rgb(0%, 51.799011%, 81.999207%)" offset="0"/><stop stop-opacity="1" stop-color="rgb(0%, 51.799011%, 81.999207%)" offset="0.25"/><stop stop-opacity="1" stop-color="rgb(0%, 51.799011%, 81.999207%)" offset="0.375"/><stop stop-opacity="1" stop-color="rgb(0.0213623%, 51.65863%, 81.881714%)" offset="0.4375"/><stop stop-opacity="1" stop-color="rgb(0.0701904%, 51.348877%, 81.619263%)" offset="0.481202"/><stop stop-opacity="1" stop-color="rgb(0.0976562%, 51.177979%, 81.47583%)" offset="0.5"/><stop stop-opacity="1" stop-color="rgb(0.125122%, 51.005554%, 81.330872%)" offset="0.518798"/><stop stop-opacity="1" stop-color="rgb(0.152588%, 50.834656%, 81.187439%)" offset="0.5625"/><stop stop-opacity="1" stop-color="rgb(0.178528%, 50.663757%, 81.04248%)" offset="0.625"/><stop stop-opacity="1" stop-color="rgb(0.233459%, 50.32196%, 80.755615%)" offset="0.6875"/><stop stop-opacity="1" stop-color="rgb(0.286865%, 49.978638%, 80.467224%)" offset="0.75"/><stop stop-opacity="1" stop-color="rgb(0.341797%, 49.636841%, 80.178833%)" offset="0.8125"/><stop stop-opacity="1" stop-color="rgb(0.395203%, 49.293518%, 79.890442%)" offset="0.875"/><stop stop-opacity="1" stop-color="rgb(0.450134%, 48.951721%, 79.602051%)" offset="0.9375"/><stop stop-opacity="1" stop-color="rgb(0.50354%, 48.608398%, 79.31366%)" offset="1"/></linearGradient><clipPath id="a98e6a2444"><path d="M 30.214844 174 L 46 174 L 46 190 L 30.214844 190 Z M 30.214844 174 " clip-rule="nonzero"/></clipPath><clipPath id="1e8deb77f8"><path d="M 43.183594 174.628906 C 42.628906 174.628906 42.097656 174.851562 41.703125 175.242188 L 30.828125 186.121094 C 30.4375 186.507812 30.214844 187.042969 30.214844 187.597656 C 30.214844 189.460938 32.46875 190.398438 33.789062 189.078125 L 44.664062 178.203125 C 45.984375 176.882812 45.050781 174.628906 43.183594 174.628906 Z M 43.183594 174.628906 " clip-rule="nonzero"/></clipPath><linearGradient x1="58.020992" gradientTransform="matrix(0.260185, 0, 0, 0.260185, 30.214434, 155.089656)" y1="72.698563" x2="-0.223189" gradientUnits="userSpaceOnUse" y2="135.492946" id="14b4bd7083"><stop stop-opacity="1" stop-color="rgb(1.721191%, 40.927124%, 72.848511%)" offset="0"/><stop stop-opacity="1" stop-color="rgb(1.737976%, 40.820312%, 72.758484%)" offset="0.015625"/><stop stop-opacity="1" stop-color="rgb(1.771545%, 40.606689%, 72.579956%)" offset="0.03125"/><stop stop-opacity="1" stop-color="rgb(1.805115%, 40.393066%, 72.399902%)" offset="0.046875"/><stop stop-opacity="1" stop-color="rgb(1.838684%, 40.180969%, 72.219849%)" offset="0.0625"/><stop stop-opacity="1" stop-color="rgb(1.873779%, 39.967346%, 72.041321%)" offset="0.078125"/><stop stop-opacity="1" stop-color="rgb(1.907349%, 39.753723%, 71.861267%)" offset="0.09375"/><stop stop-opacity="1" stop-color="rgb(1.940918%, 39.5401%, 71.681213%)" offset="0.109375"/><stop stop-opacity="1" stop-color="rgb(1.974487%, 39.326477%, 71.502686%)" offset="0.125"/><stop stop-opacity="1" stop-color="rgb(2.008057%, 39.112854%, 71.322632%)" offset="0.140625"/><stop stop-opacity="1" stop-color="rgb(2.041626%, 38.899231%, 71.142578%)" offset="0.15625"/><stop stop-opacity="1" stop-color="rgb(2.075195%, 38.687134%, 70.96405%)" offset="0.171875"/><stop stop-opacity="1" stop-color="rgb(2.110291%, 38.473511%, 70.783997%)" offset="0.1875"/><stop stop-opacity="1" stop-color="rgb(2.14386%, 38.259888%, 70.603943%)" offset="0.203125"/><stop stop-opacity="1" stop-color="rgb(2.177429%, 38.046265%, 70.423889%)" offset="0.21875"/><stop stop-opacity="1" stop-color="rgb(2.210999%, 37.832642%, 70.245361%)" offset="0.234375"/><stop stop-opacity="1" stop-color="rgb(2.244568%, 37.619019%, 70.065308%)" offset="0.25"/><stop stop-opacity="1" stop-color="rgb(2.278137%, 37.406921%, 69.885254%)" offset="0.265625"/><stop stop-opacity="1" stop-color="rgb(2.313232%, 37.193298%, 69.706726%)" offset="0.28125"/><stop stop-opacity="1" stop-color="rgb(2.346802%, 36.979675%, 69.526672%)" offset="0.296875"/><stop stop-opacity="1" stop-color="rgb(2.380371%, 36.766052%, 69.346619%)" offset="0.3125"/><stop stop-opacity="1" stop-color="rgb(2.41394%, 36.552429%, 69.168091%)" offset="0.328125"/><stop stop-opacity="1" stop-color="rgb(2.44751%, 36.338806%, 68.988037%)" offset="0.34375"/><stop stop-opacity="1" stop-color="rgb(2.481079%, 36.126709%, 68.807983%)" offset="0.359375"/><stop stop-opacity="1" stop-color="rgb(2.514648%, 35.913086%, 68.629456%)" offset="0.375"/><stop stop-opacity="1" stop-color="rgb(2.549744%, 35.699463%, 68.449402%)" offset="0.390625"/><stop stop-opacity="1" stop-color="rgb(2.583313%, 35.48584%, 68.269348%)" offset="0.40625"/><stop stop-opacity="1" stop-color="rgb(2.616882%, 35.272217%, 68.089294%)" offset="0.421875"/><stop stop-opacity="1" stop-color="rgb(2.650452%, 35.058594%, 67.910767%)" offset="0.4375"/><stop stop-opacity="1" stop-color="rgb(2.684021%, 34.846497%, 67.730713%)" offset="0.453125"/><stop stop-opacity="1" stop-color="rgb(2.71759%, 34.632874%, 67.550659%)" offset="0.46875"/><stop stop-opacity="1" stop-color="rgb(2.75116%, 34.41925%, 67.372131%)" offset="0.481245"/><stop stop-opacity="1" stop-color="rgb(2.76947%, 34.312439%, 67.282104%)" offset="0.484375"/><stop stop-opacity="1" stop-color="rgb(2.786255%, 34.205627%, 67.192078%)" offset="0.5"/><stop stop-opacity="1" stop-color="rgb(2.819824%, 33.992004%, 67.012024%)" offset="0.515625"/><stop stop-opacity="1" stop-color="rgb(2.853394%, 33.778381%, 66.833496%)" offset="0.518755"/><stop stop-opacity="1" stop-color="rgb(2.870178%, 33.673096%, 66.743469%)" offset="0.53125"/><stop stop-opacity="1" stop-color="rgb(2.886963%, 33.566284%, 66.653442%)" offset="0.546875"/><stop stop-opacity="1" stop-color="rgb(2.920532%, 33.352661%, 66.473389%)" offset="0.5625"/><stop stop-opacity="1" stop-color="rgb(2.954102%, 33.139038%, 66.294861%)" offset="0.578125"/><stop stop-opacity="1" stop-color="rgb(2.989197%, 32.925415%, 66.114807%)" offset="0.59375"/><stop stop-opacity="1" stop-color="rgb(3.022766%, 32.711792%, 65.934753%)" offset="0.609375"/><stop stop-opacity="1" stop-color="rgb(3.056335%, 32.498169%, 65.7547%)" offset="0.625"/><stop stop-opacity="1" stop-color="rgb(3.089905%, 32.284546%, 65.576172%)" offset="0.640625"/><stop stop-opacity="1" stop-color="rgb(3.123474%, 32.072449%, 65.396118%)" offset="0.65625"/><stop stop-opacity="1" stop-color="rgb(3.157043%, 31.858826%, 65.216064%)" offset="0.671875"/><stop stop-opacity="1" stop-color="rgb(3.190613%, 31.645203%, 65.037537%)" offset="0.6875"/><stop stop-opacity="1" stop-color="rgb(3.225708%, 31.43158%, 64.857483%)" offset="0.703125"/><stop stop-opacity="1" stop-color="rgb(3.259277%, 31.217957%, 64.677429%)" offset="0.71875"/><stop stop-opacity="1" stop-color="rgb(3.292847%, 31.004333%, 64.498901%)" offset="0.734375"/><stop stop-opacity="1" stop-color="rgb(3.326416%, 30.792236%, 64.318848%)" offset="0.75"/><stop stop-opacity="1" stop-color="rgb(3.359985%, 30.578613%, 64.138794%)" offset="0.765625"/><stop stop-opacity="1" stop-color="rgb(3.393555%, 30.36499%, 63.960266%)" offset="0.78125"/><stop stop-opacity="1" stop-color="rgb(3.427124%, 30.151367%, 63.780212%)" offset="0.796875"/><stop stop-opacity="1" stop-color="rgb(3.462219%, 29.937744%, 63.600159%)" offset="0.8125"/><stop stop-opacity="1" stop-color="rgb(3.495789%, 29.724121%, 63.421631%)" offset="0.828125"/><stop stop-opacity="1" stop-color="rgb(3.529358%, 29.512024%, 63.241577%)" offset="0.84375"/><stop stop-opacity="1" stop-color="rgb(3.562927%, 29.298401%, 63.061523%)" offset="0.859375"/><stop stop-opacity="1" stop-color="rgb(3.596497%, 29.084778%, 62.88147%)" offset="0.875"/><stop stop-opacity="1" stop-color="rgb(3.630066%, 28.871155%, 62.702942%)" offset="0.890625"/><stop stop-opacity="1" stop-color="rgb(3.663635%, 28.657532%, 62.522888%)" offset="0.90625"/><stop stop-opacity="1" stop-color="rgb(3.69873%, 28.443909%, 62.342834%)" offset="0.921875"/><stop stop-opacity="1" stop-color="rgb(3.7323%, 28.231812%, 62.164307%)" offset="0.9375"/><stop stop-opacity="1" stop-color="rgb(3.765869%, 28.018188%, 61.984253%)" offset="0.953125"/><stop stop-opacity="1" stop-color="rgb(3.799438%, 27.804565%, 61.804199%)" offset="0.96875"/><stop stop-opacity="1" stop-color="rgb(3.833008%, 27.590942%, 61.625671%)" offset="0.984375"/><stop stop-opacity="1" stop-color="rgb(3.866577%, 27.377319%, 61.445618%)" offset="1"/></linearGradient><clipPath id="fef14a6cba"><path d="M 35 155.089844 L 88.714844 155.089844 L 88.714844 213.589844 L 35 213.589844 Z M 35 155.089844 " clip-rule="nonzero"/></clipPath><clipPath id="a6118c9414"><path d="M 88.101562 181.929688 L 76.59375 193.4375 C 76.097656 193.933594 75.386719 194.152344 74.691406 194.007812 C 72.664062 193.597656 72.253906 191.847656 73.71875 190.390625 L 78.796875 185.304688 C 79.039062 185.0625 79.15625 184.742188 79.15625 184.425781 C 79.15625 184.109375 79.039062 183.789062 78.796875 183.554688 C 78.308594 183.066406 77.53125 183.066406 77.046875 183.554688 L 62.078125 198.519531 C 61.835938 198.761719 61.71875 199.082031 61.71875 199.398438 C 61.71875 199.707031 61.835938 200.027344 62.078125 200.269531 C 62.554688 200.757812 63.34375 200.757812 63.832031 200.269531 L 65.597656 198.503906 C 66.945312 197.164062 69.265625 198.160156 69.171875 200.105469 C 69.136719 200.640625 68.886719 201.140625 68.503906 201.519531 L 57.054688 212.976562 C 56.5625 213.46875 55.847656 213.6875 55.152344 213.546875 C 53.125 213.132812 52.714844 211.386719 54.183594 209.929688 L 59.117188 204.988281 C 59.359375 204.746094 59.476562 204.4375 59.476562 204.117188 C 59.476562 203.800781 59.359375 203.480469 59.117188 203.238281 C 58.628906 202.75 57.84375 202.75 57.355469 203.238281 L 53.335938 207.257812 C 51.988281 208.605469 49.667969 207.609375 49.761719 205.664062 C 49.796875 205.128906 50.046875 204.625 50.433594 204.242188 L 68.855469 185.816406 C 69.097656 185.574219 69.226562 185.253906 69.226562 184.9375 C 69.226562 184.585938 69.070312 184.230469 68.769531 183.976562 C 68.269531 183.558594 67.511719 183.652344 67.050781 184.113281 L 53.339844 197.824219 C 51.992188 199.171875 49.671875 198.175781 49.765625 196.234375 C 49.796875 195.695312 50.046875 195.195312 50.4375 194.808594 L 56.804688 188.441406 C 57.285156 187.957031 57.285156 187.171875 56.800781 186.6875 L 56.796875 186.6875 C 56.3125 186.207031 55.53125 186.207031 55.050781 186.6875 L 48.300781 193.4375 C 47.808594 193.929688 47.09375 194.148438 46.402344 194.003906 C 44.375 193.59375 43.972656 191.847656 45.429688 190.386719 L 48.277344 187.574219 C 48.519531 187.332031 48.636719 187.011719 48.636719 186.695312 C 48.636719 186.390625 48.53125 186.09375 48.308594 185.855469 C 47.828125 185.339844 46.953125 185.394531 46.457031 185.894531 L 38.867188 193.4375 C 38.375 193.933594 37.660156 194.152344 36.964844 194.007812 C 34.9375 193.597656 34.527344 191.847656 35.996094 190.390625 L 56.640625 169.734375 C 56.878906 169.492188 56.996094 169.171875 56.996094 168.855469 C 56.996094 168.539062 56.878906 168.21875 56.640625 167.976562 C 56.152344 167.5 55.375 167.5 54.886719 167.976562 L 53.339844 169.523438 C 51.992188 170.871094 49.671875 169.875 49.765625 167.933594 C 49.796875 167.394531 50.046875 166.894531 50.4375 166.507812 L 61.246094 155.699219 C 61.726562 155.21875 62.433594 154.992188 63.132812 155.125 C 65.175781 155.523438 65.589844 157.277344 64.121094 158.746094 L 59.605469 163.261719 C 59.363281 163.503906 59.246094 163.824219 59.246094 164.140625 C 59.246094 164.457031 59.363281 164.777344 59.605469 165.019531 C 60.089844 165.507812 60.878906 165.507812 61.355469 165.019531 L 65.601562 160.773438 C 66.949219 159.425781 69.269531 160.429688 69.175781 162.375 C 69.144531 162.910156 68.894531 163.414062 68.507812 163.789062 L 51.238281 181.101562 C 50.996094 181.34375 50.878906 181.664062 50.878906 181.980469 C 50.878906 182.300781 50.996094 182.621094 51.238281 182.863281 C 51.722656 183.347656 52.507812 183.347656 52.996094 182.863281 L 65.507812 170.304688 C 67.011719 168.796875 68.785156 169.234375 69.144531 171.332031 C 69.261719 172.015625 69.035156 172.691406 68.5625 173.167969 L 59.753906 181.984375 C 59.273438 182.46875 59.273438 183.253906 59.753906 183.734375 C 60.238281 184.21875 61.023438 184.21875 61.507812 183.734375 L 70 175.242188 C 70.484375 174.757812 71.1875 174.535156 71.886719 174.667969 C 73.929688 175.066406 74.34375 176.820312 72.875 178.289062 L 71.816406 179.347656 C 71.574219 179.589844 71.449219 179.910156 71.449219 180.226562 C 71.449219 180.578125 71.605469 180.933594 71.902344 181.183594 C 72.40625 181.601562 73.164062 181.507812 73.625 181.046875 L 79.367188 175.304688 C 79.75 174.921875 80.25 174.664062 80.785156 174.632812 C 82.726562 174.53125 83.738281 176.855469 82.382812 178.207031 L 81.757812 178.835938 C 81.515625 179.074219 81.398438 179.394531 81.398438 179.714844 C 81.398438 180.03125 81.515625 180.351562 81.757812 180.59375 C 82.242188 181.078125 83.03125 181.078125 83.507812 180.59375 L 85.046875 179.058594 C 86.503906 177.601562 88.257812 178.003906 88.667969 180.03125 C 88.8125 180.726562 88.585938 181.4375 88.101562 181.929688 Z M 88.101562 181.929688 " clip-rule="nonzero"/></clipPath><linearGradient x1="221.320227" gradientTransform="matrix(0.260185, 0, 0, 0.260185, 30.214434, 155.089656)" y1="-3.26012" x2="12.907918" gradientUnits="userSpaceOnUse" y2="221.433955" id="71a36f0771"><stop stop-opacity="1" stop-color="rgb(0%, 51.799011%, 81.999207%)" offset="0"/><stop stop-opacity="1" stop-color="rgb(0%, 51.799011%, 81.999207%)" offset="0.25"/><stop stop-opacity="1" stop-color="rgb(0%, 51.799011%, 81.999207%)" offset="0.3125"/><stop stop-opacity="1" stop-color="rgb(0.0244141%, 51.638794%, 81.864929%)" offset="0.328125"/><stop stop-opacity="1" stop-color="rgb(0.0793457%, 51.287842%, 81.568909%)" offset="0.335937"/><stop stop-opacity="1" stop-color="rgb(0.140381%, 50.906372%, 81.246948%)" offset="0.34375"/><stop stop-opacity="1" stop-color="rgb(0.201416%, 50.524902%, 80.926514%)" offset="0.351562"/><stop stop-opacity="1" stop-color="rgb(0.260925%, 50.143433%, 80.604553%)" offset="0.359375"/><stop stop-opacity="1" stop-color="rgb(0.32196%, 49.761963%, 80.284119%)" offset="0.367187"/><stop stop-opacity="1" stop-color="rgb(0.38147%, 49.378967%, 79.962158%)" offset="0.375"/><stop stop-opacity="1" stop-color="rgb(0.442505%, 48.997498%, 79.641724%)" offset="0.382812"/><stop stop-opacity="1" stop-color="rgb(0.50354%, 48.616028%, 79.319763%)" offset="0.390625"/><stop stop-opacity="1" stop-color="rgb(0.563049%, 48.234558%, 78.999329%)" offset="0.398437"/><stop stop-opacity="1" stop-color="rgb(0.624084%, 47.853088%, 78.677368%)" offset="0.40625"/><stop stop-opacity="1" stop-color="rgb(0.68512%, 47.470093%, 78.355408%)" offset="0.414062"/><stop stop-opacity="1" stop-color="rgb(0.744629%, 47.088623%, 78.034973%)" offset="0.421875"/><stop stop-opacity="1" stop-color="rgb(0.805664%, 46.707153%, 77.713013%)" offset="0.429688"/><stop stop-opacity="1" stop-color="rgb(0.865173%, 46.325684%, 77.392578%)" offset="0.4375"/><stop stop-opacity="1" stop-color="rgb(0.926208%, 45.944214%, 77.070618%)" offset="0.445312"/><stop stop-opacity="1" stop-color="rgb(0.987244%, 45.562744%, 76.750183%)" offset="0.453125"/><stop stop-opacity="1" stop-color="rgb(1.046753%, 45.179749%, 76.428223%)" offset="0.460937"/><stop stop-opacity="1" stop-color="rgb(1.107788%, 44.798279%, 76.106262%)" offset="0.462111"/><stop stop-opacity="1" stop-color="rgb(1.138306%, 44.607544%, 75.946045%)" offset="0.46875"/><stop stop-opacity="1" stop-color="rgb(1.168823%, 44.416809%, 75.785828%)" offset="0.476562"/><stop stop-opacity="1" stop-color="rgb(1.228333%, 44.035339%, 75.463867%)" offset="0.484375"/><stop stop-opacity="1" stop-color="rgb(1.289368%, 43.65387%, 75.143433%)" offset="0.492187"/><stop stop-opacity="1" stop-color="rgb(1.348877%, 43.270874%, 74.821472%)" offset="0.5"/><stop stop-opacity="1" stop-color="rgb(1.409912%, 42.889404%, 74.501038%)" offset="0.507812"/><stop stop-opacity="1" stop-color="rgb(1.470947%, 42.507935%, 74.179077%)" offset="0.515625"/><stop stop-opacity="1" stop-color="rgb(1.530457%, 42.126465%, 73.858643%)" offset="0.523438"/><stop stop-opacity="1" stop-color="rgb(1.591492%, 41.744995%, 73.536682%)" offset="0.53125"/><stop stop-opacity="1" stop-color="rgb(1.652527%, 41.362%, 73.214722%)" offset="0.537889"/><stop stop-opacity="1" stop-color="rgb(1.683044%, 41.171265%, 73.054504%)" offset="0.539062"/><stop stop-opacity="1" stop-color="rgb(1.712036%, 40.98053%, 72.894287%)" offset="0.546875"/><stop stop-opacity="1" stop-color="rgb(1.773071%, 40.59906%, 72.572327%)" offset="0.554688"/><stop stop-opacity="1" stop-color="rgb(1.832581%, 40.21759%, 72.251892%)" offset="0.5625"/><stop stop-opacity="1" stop-color="rgb(1.893616%, 39.836121%, 71.929932%)" offset="0.570312"/><stop stop-opacity="1" stop-color="rgb(1.954651%, 39.454651%, 71.609497%)" offset="0.578125"/><stop stop-opacity="1" stop-color="rgb(2.01416%, 39.071655%, 71.287537%)" offset="0.585938"/><stop stop-opacity="1" stop-color="rgb(2.075195%, 38.690186%, 70.965576%)" offset="0.59375"/><stop stop-opacity="1" stop-color="rgb(2.13623%, 38.308716%, 70.645142%)" offset="0.601562"/><stop stop-opacity="1" stop-color="rgb(2.19574%, 37.927246%, 70.323181%)" offset="0.609375"/><stop stop-opacity="1" stop-color="rgb(2.256775%, 37.545776%, 70.002747%)" offset="0.617188"/><stop stop-opacity="1" stop-color="rgb(2.316284%, 37.162781%, 69.680786%)" offset="0.625"/><stop stop-opacity="1" stop-color="rgb(2.377319%, 36.781311%, 69.360352%)" offset="0.632812"/><stop stop-opacity="1" stop-color="rgb(2.438354%, 36.399841%, 69.038391%)" offset="0.640625"/><stop stop-opacity="1" stop-color="rgb(2.497864%, 36.018372%, 68.717957%)" offset="0.648437"/><stop stop-opacity="1" stop-color="rgb(2.558899%, 35.636902%, 68.395996%)" offset="0.65625"/><stop stop-opacity="1" stop-color="rgb(2.619934%, 35.253906%, 68.074036%)" offset="0.664062"/><stop stop-opacity="1" stop-color="rgb(2.679443%, 34.872437%, 67.753601%)" offset="0.671875"/><stop stop-opacity="1" stop-color="rgb(2.740479%, 34.490967%, 67.431641%)" offset="0.679687"/><stop stop-opacity="1" stop-color="rgb(2.801514%, 34.109497%, 67.111206%)" offset="0.6875"/><stop stop-opacity="1" stop-color="rgb(2.861023%, 33.728027%, 66.789246%)" offset="0.695312"/><stop stop-opacity="1" stop-color="rgb(2.922058%, 33.345032%, 66.468811%)" offset="0.703125"/><stop stop-opacity="1" stop-color="rgb(2.981567%, 32.963562%, 66.146851%)" offset="0.710938"/><stop stop-opacity="1" stop-color="rgb(3.042603%, 32.582092%, 65.82489%)" offset="0.71875"/><stop stop-opacity="1" stop-color="rgb(3.103638%, 32.200623%, 65.504456%)" offset="0.726562"/><stop stop-opacity="1" stop-color="rgb(3.163147%, 31.819153%, 65.182495%)" offset="0.734375"/><stop stop-opacity="1" stop-color="rgb(3.224182%, 31.437683%, 64.862061%)" offset="0.742188"/><stop stop-opacity="1" stop-color="rgb(3.285217%, 31.054688%, 64.5401%)" offset="0.75"/><stop stop-opacity="1" stop-color="rgb(3.344727%, 30.673218%, 64.219666%)" offset="0.757812"/><stop stop-opacity="1" stop-color="rgb(3.405762%, 30.291748%, 63.897705%)" offset="0.765625"/><stop stop-opacity="1" stop-color="rgb(3.465271%, 29.910278%, 63.577271%)" offset="0.773437"/><stop stop-opacity="1" stop-color="rgb(3.526306%, 29.528809%, 63.25531%)" offset="0.78125"/><stop stop-opacity="1" stop-color="rgb(3.587341%, 29.145813%, 62.93335%)" offset="0.789062"/><stop stop-opacity="1" stop-color="rgb(3.646851%, 28.764343%, 62.612915%)" offset="0.796875"/><stop stop-opacity="1" stop-color="rgb(3.707886%, 28.382874%, 62.290955%)" offset="0.804687"/><stop stop-opacity="1" stop-color="rgb(3.768921%, 28.001404%, 61.97052%)" offset="0.8125"/><stop stop-opacity="1" stop-color="rgb(3.82843%, 27.619934%, 61.64856%)" offset="0.820312"/><stop stop-opacity="1" stop-color="rgb(3.889465%, 27.236938%, 61.328125%)" offset="0.828125"/><stop stop-opacity="1" stop-color="rgb(3.948975%, 26.855469%, 61.006165%)" offset="0.835938"/><stop stop-opacity="1" stop-color="rgb(4.01001%, 26.473999%, 60.684204%)" offset="0.84375"/><stop stop-opacity="1" stop-color="rgb(4.071045%, 26.092529%, 60.36377%)" offset="0.851562"/><stop stop-opacity="1" stop-color="rgb(4.130554%, 25.71106%, 60.041809%)" offset="0.859375"/><stop stop-opacity="1" stop-color="rgb(4.191589%, 25.32959%, 59.721375%)" offset="0.867187"/><stop stop-opacity="1" stop-color="rgb(4.252625%, 24.946594%, 59.399414%)" offset="0.875"/><stop stop-opacity="1" stop-color="rgb(4.312134%, 24.565125%, 59.078979%)" offset="0.882812"/><stop stop-opacity="1" stop-color="rgb(4.373169%, 24.183655%, 58.757019%)" offset="0.890625"/><stop stop-opacity="1" stop-color="rgb(4.432678%, 23.802185%, 58.436584%)" offset="0.898437"/><stop stop-opacity="1" stop-color="rgb(4.493713%, 23.420715%, 58.114624%)" offset="0.90625"/><stop stop-opacity="1" stop-color="rgb(4.554749%, 23.03772%, 57.792664%)" offset="0.914062"/><stop stop-opacity="1" stop-color="rgb(4.614258%, 22.65625%, 57.472229%)" offset="0.921875"/><stop stop-opacity="1" stop-color="rgb(4.675293%, 22.27478%, 57.150269%)" offset="0.929688"/><stop stop-opacity="1" stop-color="rgb(4.736328%, 21.893311%, 56.829834%)" offset="0.9375"/><stop stop-opacity="1" stop-color="rgb(4.795837%, 21.511841%, 56.507874%)" offset="0.945312"/><stop stop-opacity="1" stop-color="rgb(4.856873%, 21.128845%, 56.187439%)" offset="0.953125"/><stop stop-opacity="1" stop-color="rgb(4.916382%, 20.747375%, 55.865479%)" offset="0.960937"/><stop stop-opacity="1" stop-color="rgb(4.977417%, 20.365906%, 55.543518%)" offset="0.96875"/><stop stop-opacity="1" stop-color="rgb(5.038452%, 19.984436%, 55.223083%)" offset="0.976562"/><stop stop-opacity="1" stop-color="rgb(5.084229%, 19.696045%, 54.980469%)" offset="0.984375"/><stop stop-opacity="1" stop-color="rgb(5.099487%, 19.599915%, 54.899597%)" offset="1"/></linearGradient><clipPath id="436788d465"><path d="M 82 187 L 88.714844 187 L 88.714844 195 L 82 195 Z M 82 187 " clip-rule="nonzero"/></clipPath><clipPath id="795ee5e8d8"><path d="M 85.140625 188.402344 L 83.0625 190.476562 C 81.742188 191.796875 82.679688 194.050781 84.542969 194.050781 C 85.097656 194.050781 85.632812 193.832031 86.023438 193.4375 L 88.101562 191.363281 C 88.492188 190.96875 88.714844 190.4375 88.714844 189.882812 C 88.710938 188.015625 86.457031 187.082031 85.140625 188.402344 Z M 85.140625 188.402344 " clip-rule="nonzero"/></clipPath><linearGradient x1="225.716738" gradientTransform="matrix(0.260185, 0, 0, 0.260185, 30.214434, 155.089656)" y1="123.777806" x2="199.972546" gradientUnits="userSpaceOnUse" y2="151.533206" id="333fd61dd2"><stop stop-opacity="1" stop-color="rgb(0%, 51.799011%, 81.999207%)" offset="0"/><stop stop-opacity="1" stop-color="rgb(0.012207%, 51.713562%, 81.92749%)" offset="0.25"/><stop stop-opacity="1" stop-color="rgb(0.0549316%, 51.44043%, 81.698608%)" offset="0.3125"/><stop stop-opacity="1" stop-color="rgb(0.114441%, 51.063538%, 81.381226%)" offset="0.375"/><stop stop-opacity="1" stop-color="rgb(0.175476%, 50.686646%, 81.063843%)" offset="0.4375"/><stop stop-opacity="1" stop-color="rgb(0.234985%, 50.309753%, 80.744934%)" offset="0.481157"/><stop stop-opacity="1" stop-color="rgb(0.265503%, 50.120544%, 80.586243%)" offset="0.5"/><stop stop-opacity="1" stop-color="rgb(0.294495%, 49.931335%, 80.427551%)" offset="0.518843"/><stop stop-opacity="1" stop-color="rgb(0.325012%, 49.743652%, 80.26886%)" offset="0.5625"/><stop stop-opacity="1" stop-color="rgb(0.354004%, 49.554443%, 80.110168%)" offset="0.625"/><stop stop-opacity="1" stop-color="rgb(0.413513%, 49.177551%, 79.792786%)" offset="0.6875"/><stop stop-opacity="1" stop-color="rgb(0.473022%, 48.800659%, 79.475403%)" offset="0.75"/><stop stop-opacity="1" stop-color="rgb(0.532532%, 48.422241%, 79.15802%)" offset="0.8125"/><stop stop-opacity="1" stop-color="rgb(0.593567%, 48.045349%, 78.840637%)" offset="0.875"/><stop stop-opacity="1" stop-color="rgb(0.653076%, 47.668457%, 78.523254%)" offset="0.9375"/><stop stop-opacity="1" stop-color="rgb(0.712585%, 47.291565%, 78.205872%)" offset="1"/></linearGradient><clipPath id="41588e9649"><path d="M 62 207 L 70 207 L 70 213.589844 L 62 213.589844 Z M 62 207 " clip-rule="nonzero"/></clipPath><clipPath id="b7c68fce0d"><path d="M 65.597656 207.9375 L 63.523438 210.015625 C 62.203125 211.332031 63.136719 213.589844 65.003906 213.589844 C 65.558594 213.589844 66.089844 213.367188 66.484375 212.976562 L 68.558594 210.898438 C 68.953125 210.507812 69.175781 209.972656 69.175781 209.417969 C 69.175781 207.554688 66.917969 206.621094 65.597656 207.9375 Z M 65.597656 207.9375 " clip-rule="nonzero"/></clipPath><linearGradient x1="150.624296" gradientTransform="matrix(0.260185, 0, 0, 0.260185, 30.214434, 155.089656)" y1="198.870181" x2="124.877804" gradientUnits="userSpaceOnUse" y2="226.628063" id="fe5609d324"><stop stop-opacity="1" stop-color="rgb(2.467346%, 36.218262%, 68.885803%)" offset="0"/><stop stop-opacity="1" stop-color="rgb(2.496338%, 36.029053%, 68.727112%)" offset="0.0625"/><stop stop-opacity="1" stop-color="rgb(2.555847%, 35.652161%, 68.409729%)" offset="0.125"/><stop stop-opacity="1" stop-color="rgb(2.615356%, 35.275269%, 68.092346%)" offset="0.1875"/><stop stop-opacity="1" stop-color="rgb(2.674866%, 34.896851%, 67.774963%)" offset="0.25"/><stop stop-opacity="1" stop-color="rgb(2.735901%, 34.519958%, 67.457581%)" offset="0.3125"/><stop stop-opacity="1" stop-color="rgb(2.79541%, 34.143066%, 67.140198%)" offset="0.375"/><stop stop-opacity="1" stop-color="rgb(2.854919%, 33.766174%, 66.822815%)" offset="0.4375"/><stop stop-opacity="1" stop-color="rgb(2.914429%, 33.387756%, 66.505432%)" offset="0.481204"/><stop stop-opacity="1" stop-color="rgb(2.944946%, 33.200073%, 66.346741%)" offset="0.5"/><stop stop-opacity="1" stop-color="rgb(2.973938%, 33.010864%, 66.186523%)" offset="0.518796"/><stop stop-opacity="1" stop-color="rgb(3.004456%, 32.823181%, 66.027832%)" offset="0.5625"/><stop stop-opacity="1" stop-color="rgb(3.033447%, 32.633972%, 65.869141%)" offset="0.625"/><stop stop-opacity="1" stop-color="rgb(3.094482%, 32.25708%, 65.551758%)" offset="0.6875"/><stop stop-opacity="1" stop-color="rgb(3.153992%, 31.878662%, 65.234375%)" offset="0.75"/><stop stop-opacity="1" stop-color="rgb(3.213501%, 31.50177%, 64.916992%)" offset="0.8125"/><stop stop-opacity="1" stop-color="rgb(3.27301%, 31.124878%, 64.599609%)" offset="0.875"/><stop stop-opacity="1" stop-color="rgb(3.33252%, 30.747986%, 64.282227%)" offset="0.9375"/><stop stop-opacity="1" stop-color="rgb(3.392029%, 30.369568%, 63.964844%)" offset="1"/></linearGradient></defs><g clip-path="url(#0dec46f408)"><g clip-path="url(#72620d024d)"><path fill="url(#8e51218d34)" d="M 30.214844 174.625 L 30.214844 180.964844 L 36.550781 180.964844 L 36.550781 174.625 Z M 30.214844 174.625 " fill-rule="nonzero"/></g></g><g clip-path="url(#9f17d8b0a1)"><g clip-path="url(#65054552b9)"><path fill="url(#d885494a0f)" d="M 49.761719 155.089844 L 49.761719 161.417969 L 56.089844 161.417969 L 56.089844 155.089844 Z M 49.761719 155.089844 " fill-rule="nonzero"/></g></g><g clip-path="url(#a98e6a2444)"><g clip-path="url(#1e8deb77f8)"><path fill="url(#14b4bd7083)" d="M 30.214844 174.628906 L 30.214844 190.398438 L 45.984375 190.398438 L 45.984375 174.628906 Z M 30.214844 174.628906 " fill-rule="nonzero"/></g></g><g clip-path="url(#fef14a6cba)"><g clip-path="url(#a6118c9414)"><path fill="url(#71a36f0771)" d="M 34.527344 155.089844 L 34.527344 213.589844 L 88.714844 213.589844 L 88.714844 155.089844 Z M 34.527344 155.089844 " fill-rule="nonzero"/></g></g><g clip-path="url(#436788d465)"><g clip-path="url(#795ee5e8d8)"><path fill="url(#333fd61dd2)" d="M 81.742188 187.082031 L 81.742188 194.050781 L 88.714844 194.050781 L 88.714844 187.082031 Z M 81.742188 187.082031 " fill-rule="nonzero"/></g></g><g clip-path="url(#41588e9649)"><g clip-path="url(#b7c68fce0d)"><path fill="url(#fe5609d324)" d="M 62.203125 206.621094 L 62.203125 213.589844 L 69.175781 213.589844 L 69.175781 206.621094 Z M 62.203125 206.621094 " fill-rule="nonzero"/></g></g><g fill="#545454" fill-opacity="1"><g transform="translate(95.150202, 194.879375)"><g><path d="M 13.097656 0 L 13.097656 -4.164062 L 6.492188 -4.164062 L 6.492188 -8.324219 L 11.960938 -8.324219 L 11.960938 -12.488281 L 6.492188 -12.488281 L 6.492188 -16.648438 L 12.75 -16.648438 L 12.75 -20.8125 L 2.328125 -20.8125 L 2.328125 0 Z M 13.097656 0 "/></g></g></g><g fill="#545454" fill-opacity="1"><g transform="translate(110.547538, 194.879375)"><g><path d="M 1.367188 -1.339844 C 4.191406 0.117188 6.78125 0.261719 7.945312 0.175781 C 11.847656 -0.0273438 14.234375 -2.679688 14.234375 -6.140625 C 14.234375 -9.460938 11.4375 -11.324219 8.207031 -12.515625 C 7.015625 -12.921875 5.996094 -13.445312 5.878906 -14.613281 C 5.792969 -15.777344 6.460938 -16.851562 7.945312 -16.941406 C 8.585938 -16.96875 9.894531 -17 12.195312 -16.066406 L 12.71875 -20.082031 C 10.042969 -21.015625 8.617188 -21.015625 7.539062 -20.957031 C 4.074219 -20.78125 1.660156 -18.105469 1.660156 -14.613281 C 1.660156 -11.117188 4.570312 -9.460938 7.828125 -8.265625 C 8.992188 -7.859375 9.894531 -7.335938 9.984375 -6.140625 C 10.101562 -5.007812 9.050781 -4.132812 7.828125 -4.046875 C 6.867188 -3.957031 4.277344 -4.015625 1.890625 -5.703125 Z M 1.367188 -1.339844 "/></g></g></g><g fill="#545454" fill-opacity="1"><g transform="translate(126.672531, 194.879375)"><g><path d="M 6.492188 0 L 6.492188 -7.945312 L 10.507812 -7.945312 C 18.570312 -7.945312 18.597656 -20.78125 10.507812 -20.78125 L 2.328125 -20.78125 L 2.328125 0 Z M 6.492188 -11.992188 L 6.492188 -16.648438 L 10.15625 -16.648438 C 12.953125 -16.648438 12.953125 -11.992188 10.15625 -11.992188 Z M 6.492188 -11.992188 "/></g></g></g><g fill="#545454" fill-opacity="1"><g transform="translate(144.951402, 194.879375)"><g><path d="M 13.097656 0 L 13.097656 -4.164062 L 6.492188 -4.164062 L 6.492188 -8.324219 L 11.960938 -8.324219 L 11.960938 -12.488281 L 6.492188 -12.488281 L 6.492188 -16.648438 L 12.75 -16.648438 L 12.75 -20.8125 L 2.328125 -20.8125 L 2.328125 0 Z M 13.097656 0 "/></g></g></g><g fill="#545454" fill-opacity="1"><g transform="translate(160.348739, 194.879375)"><g><path d="M 15.570312 -15.980469 L 16.066406 -20.257812 C 14.816406 -20.8125 13.417969 -21.074219 11.960938 -21.074219 C -2.125 -21.074219 -2.152344 0.0585938 11.960938 0.0585938 C 13.417969 0.0585938 15.25 -0.292969 16.53125 -0.816406 L 15.980469 -5.121094 C 15.195312 -4.714844 13.765625 -4.191406 11.960938 -4.191406 C 3.726562 -4.191406 3.726562 -16.882812 11.960938 -16.882812 C 13.765625 -16.882812 14.785156 -16.386719 15.570312 -15.980469 Z M 15.570312 -15.980469 "/></g></g></g><g fill="#545454" fill-opacity="1"><g transform="translate(178.598506, 194.879375)"><g><path d="M 6.492188 0 L 6.492188 -20.8125 L 2.328125 -20.8125 L 2.328125 0 Z M 6.492188 0 "/></g></g></g><g fill="#545454" fill-opacity="1"><g transform="translate(188.174542, 194.879375)"><g><path d="M 0.464844 0 L 5.179688 0 L 5.996094 -2.242188 L 12.894531 -2.242188 L 13.738281 0 L 18.425781 0 L 9.664062 -21.566406 L 9.226562 -21.566406 Z M 7.507812 -6.140625 L 9.460938 -11.554688 L 11.351562 -6.140625 Z M 7.507812 -6.140625 "/></g></g></g><g fill="#545454" fill-opacity="1"><g transform="translate(207.908738, 194.879375)"><g><path d="M 2.328125 -20.8125 L 2.328125 0 L 13.097656 0 L 13.097656 -4.164062 L 6.492188 -4.164062 L 6.492188 -20.8125 Z M 2.328125 -20.8125 "/></g></g></g><g fill="#545454" fill-opacity="1"><g transform="translate(222.985903, 194.879375)"><g><path d="M 6.492188 0 L 6.492188 -20.8125 L 2.328125 -20.8125 L 2.328125 0 Z M 6.492188 0 "/></g></g></g><g fill="#545454" fill-opacity="1"><g transform="translate(232.561939, 194.879375)"><g><path d="M 8.527344 -20.8125 L 2.328125 -20.8125 L 2.328125 0 L 8.527344 0 C 22.382812 0 22.382812 -20.8125 8.527344 -20.8125 Z M 8.527344 -16.648438 C 16.621094 -16.648438 16.621094 -4.164062 8.527344 -4.164062 L 6.492188 -4.164062 L 6.492188 -16.648438 Z M 8.527344 -16.648438 "/></g></g></g><g fill="#545454" fill-opacity="1"><g transform="translate(253.780571, 194.879375)"><g><path d="M 0.464844 0 L 5.179688 0 L 5.996094 -2.242188 L 12.894531 -2.242188 L 13.738281 0 L 18.425781 0 L 9.664062 -21.566406 L 9.226562 -21.566406 Z M 7.507812 -6.140625 L 9.460938 -11.554688 L 11.351562 -6.140625 Z M 7.507812 -6.140625 "/></g></g></g><g fill="#545454" fill-opacity="1"><g transform="translate(273.514767, 194.879375)"><g><path d="M 8.527344 -20.8125 L 2.328125 -20.8125 L 2.328125 0 L 8.527344 0 C 22.382812 0 22.382812 -20.8125 8.527344 -20.8125 Z M 8.527344 -16.648438 C 16.621094 -16.648438 16.621094 -4.164062 8.527344 -4.164062 L 6.492188 -4.164062 L 6.492188 -16.648438 Z M 8.527344 -16.648438 "/></g></g></g><g fill="#545454" fill-opacity="1"><g transform="translate(294.733399, 194.879375)"><g><path d="M 13.097656 0 L 13.097656 -4.164062 L 6.492188 -4.164062 L 6.492188 -8.324219 L 11.960938 -8.324219 L 11.960938 -12.488281 L 6.492188 -12.488281 L 6.492188 -16.648438 L 12.75 -16.648438 L 12.75 -20.8125 L 2.328125 -20.8125 L 2.328125 0 Z M 13.097656 0 "/></g></g></g><g fill="#545454" fill-opacity="1"><g transform="translate(310.130733, 194.879375)"><g><path d="M 1.367188 -1.339844 C 4.191406 0.117188 6.78125 0.261719 7.945312 0.175781 C 11.847656 -0.0273438 14.234375 -2.679688 14.234375 -6.140625 C 14.234375 -9.460938 11.4375 -11.324219 8.207031 -12.515625 C 7.015625 -12.921875 5.996094 -13.445312 5.878906 -14.613281 C 5.792969 -15.777344 6.460938 -16.851562 7.945312 -16.941406 C 8.585938 -16.96875 9.894531 -17 12.195312 -16.066406 L 12.71875 -20.082031 C 10.042969 -21.015625 8.617188 -21.015625 7.539062 -20.957031 C 4.074219 -20.78125 1.660156 -18.105469 1.660156 -14.613281 C 1.660156 -11.117188 4.570312 -9.460938 7.828125 -8.265625 C 8.992188 -7.859375 9.894531 -7.335938 9.984375 -6.140625 C 10.101562 -5.007812 9.050781 -4.132812 7.828125 -4.046875 C 6.867188 -3.957031 4.277344 -4.015625 1.890625 -5.703125 Z M 1.367188 -1.339844 "/></g></g></g><g fill="#737373" fill-opacity="1"><g transform="translate(140.081477, 211.199736)"><g><path d="M 4.0625 0.171875 C 2.914062 0.171875 2.0625 -0.128906 1.5 -0.734375 C 0.945312 -1.335938 0.65625 -2.296875 0.625 -3.609375 L 2.875 -3.953125 C 2.882812 -3.191406 2.972656 -2.644531 3.140625 -2.3125 C 3.316406 -1.988281 3.578125 -1.828125 3.921875 -1.828125 C 4.367188 -1.828125 4.59375 -2.117188 4.59375 -2.703125 C 4.59375 -3.160156 4.484375 -3.554688 4.265625 -3.890625 C 4.054688 -4.222656 3.726562 -4.582031 3.28125 -4.96875 L 2.234375 -5.875 C 1.722656 -6.300781 1.328125 -6.757812 1.046875 -7.25 C 0.773438 -7.738281 0.640625 -8.316406 0.640625 -8.984375 C 0.640625 -9.984375 0.9375 -10.753906 1.53125 -11.296875 C 2.125 -11.835938 2.941406 -12.109375 3.984375 -12.109375 C 5.109375 -12.109375 5.875 -11.78125 6.28125 -11.125 C 6.695312 -10.46875 6.921875 -9.664062 6.953125 -8.71875 L 4.671875 -8.4375 C 4.648438 -9.050781 4.59375 -9.492188 4.5 -9.765625 C 4.40625 -10.035156 4.203125 -10.171875 3.890625 -10.171875 C 3.671875 -10.171875 3.5 -10.078125 3.375 -9.890625 C 3.25 -9.703125 3.1875 -9.488281 3.1875 -9.25 C 3.1875 -8.84375 3.273438 -8.5 3.453125 -8.21875 C 3.640625 -7.945312 3.9375 -7.632812 4.34375 -7.28125 L 5.328125 -6.421875 C 5.910156 -5.910156 6.363281 -5.375 6.6875 -4.8125 C 7.019531 -4.257812 7.1875 -3.597656 7.1875 -2.828125 C 7.1875 -2.265625 7.054688 -1.753906 6.796875 -1.296875 C 6.535156 -0.847656 6.164062 -0.488281 5.6875 -0.21875 C 5.21875 0.0390625 4.675781 0.171875 4.0625 0.171875 Z M 4.0625 0.171875 "/></g></g></g><g fill="#737373" fill-opacity="1"><g transform="translate(149.727681, 211.199736)"><g><path d="M 2.5625 -11.953125 L 5.578125 -11.953125 L 7.796875 0 L 5.375 0 L 4.96875 -2.515625 L 3.21875 -2.515625 L 2.796875 0 L 0.3125 0 Z M 4.71875 -4.09375 L 4.078125 -8.765625 L 3.453125 -4.09375 Z M 4.71875 -4.09375 "/></g></g></g><g fill="#737373" fill-opacity="1"><g transform="translate(159.91956, 211.199736)"><g><path d="M 4.34375 0.171875 C 3.445312 0.171875 2.738281 0.03125 2.21875 -0.25 C 1.695312 -0.539062 1.328125 -0.96875 1.109375 -1.53125 C 0.898438 -2.101562 0.796875 -2.828125 0.796875 -3.703125 L 0.796875 -11.953125 L 3.40625 -11.953125 L 3.40625 -3.296875 C 3.40625 -2.816406 3.46875 -2.429688 3.59375 -2.140625 C 3.71875 -1.859375 3.96875 -1.71875 4.34375 -1.71875 C 4.707031 -1.71875 4.945312 -1.859375 5.0625 -2.140625 C 5.1875 -2.429688 5.25 -2.816406 5.25 -3.296875 L 5.25 -11.953125 L 7.875 -11.953125 L 7.875 -3.703125 C 7.875 -2.828125 7.765625 -2.101562 7.546875 -1.53125 C 7.335938 -0.96875 6.972656 -0.539062 6.453125 -0.25 C 5.929688 0.03125 5.226562 0.171875 4.34375 0.171875 Z M 4.46875 -15.859375 L 6.921875 -15.859375 L 5.0625 -12.890625 L 3.546875 -12.890625 Z M 4.46875 -15.859375 "/></g></g></g><g fill="#737373" fill-opacity="1"><g transform="translate(170.65713, 211.199736)"><g><path d="M 0.890625 -11.953125 L 3.90625 -11.953125 C 4.9375 -11.953125 5.742188 -11.820312 6.328125 -11.5625 C 6.910156 -11.3125 7.320312 -10.910156 7.5625 -10.359375 C 7.800781 -9.816406 7.921875 -9.085938 7.921875 -8.171875 L 7.921875 -3.828125 C 7.921875 -2.910156 7.800781 -2.175781 7.5625 -1.625 C 7.320312 -1.070312 6.910156 -0.660156 6.328125 -0.390625 C 5.753906 -0.128906 4.957031 0 3.9375 0 L 0.890625 0 Z M 3.9375 -1.828125 C 4.320312 -1.828125 4.601562 -1.882812 4.78125 -2 C 4.96875 -2.113281 5.082031 -2.273438 5.125 -2.484375 C 5.175781 -2.691406 5.203125 -3.003906 5.203125 -3.421875 L 5.203125 -8.625 C 5.203125 -9.007812 5.175781 -9.300781 5.125 -9.5 C 5.070312 -9.707031 4.953125 -9.859375 4.765625 -9.953125 C 4.585938 -10.054688 4.304688 -10.109375 3.921875 -10.109375 L 3.53125 -10.109375 L 3.53125 -1.828125 Z M 3.9375 -1.828125 "/></g></g></g><g fill="#737373" fill-opacity="1"><g transform="translate(181.365197, 211.199736)"><g><path d="M 0.890625 -11.953125 L 6.25 -11.953125 L 6.25 -10.140625 L 3.53125 -10.140625 L 3.53125 -7.1875 L 5.609375 -7.1875 L 5.609375 -5.359375 L 3.53125 -5.359375 L 3.53125 -1.78125 L 6.28125 -1.78125 L 6.28125 0 L 0.890625 0 Z M 0.890625 -11.953125 "/></g></g></g><g fill="#737373" fill-opacity="1"><g transform="translate(190.023263, 211.199736)"><g/></g></g><g fill="#737373" fill-opacity="1"><g transform="translate(195.864432, 211.199736)"><g><path d="M 0.90625 -11.953125 L 3.546875 -11.953125 L 3.546875 0 L 0.90625 0 Z M 0.90625 -11.953125 "/></g></g></g><g fill="#737373" fill-opacity="1"><g transform="translate(202.369271, 211.199736)"><g><path d="M 0.890625 -11.953125 L 2.75 -11.953125 L 5.1875 -6.1875 L 5.1875 -11.953125 L 7.375 -11.953125 L 7.375 0 L 5.59375 0 L 3.140625 -6.1875 L 3.140625 0 L 0.890625 0 Z M 0.890625 -11.953125 "/></g></g></g><g fill="#737373" fill-opacity="1"><g transform="translate(212.708632, 211.199736)"><g><path d="M 1.96875 -9.984375 L 0.15625 -9.984375 L 0.15625 -11.953125 L 6.40625 -11.953125 L 6.40625 -9.984375 L 4.609375 -9.984375 L 4.609375 0 L 1.96875 0 Z M 1.96875 -9.984375 "/></g></g></g><g fill="#737373" fill-opacity="1"><g transform="translate(221.337215, 211.199736)"><g><path d="M 0.890625 -11.953125 L 6.25 -11.953125 L 6.25 -10.140625 L 3.53125 -10.140625 L 3.53125 -7.1875 L 5.609375 -7.1875 L 5.609375 -5.359375 L 3.53125 -5.359375 L 3.53125 -1.78125 L 6.28125 -1.78125 L 6.28125 0 L 0.890625 0 Z M 0.890625 -11.953125 "/></g></g></g><g fill="#737373" fill-opacity="1"><g transform="translate(229.995286, 211.199736)"><g><path d="M 4 0.171875 C 2.820312 0.171875 1.976562 -0.179688 1.46875 -0.890625 C 0.96875 -1.609375 0.71875 -2.628906 0.71875 -3.953125 L 0.71875 -7.96875 C 0.71875 -9.3125 0.988281 -10.335938 1.53125 -11.046875 C 2.082031 -11.753906 3.007812 -12.109375 4.3125 -12.109375 C 5.5625 -12.109375 6.453125 -11.800781 6.984375 -11.1875 C 7.523438 -10.582031 7.796875 -9.722656 7.796875 -8.609375 L 7.796875 -7.84375 L 5.21875 -7.84375 L 5.21875 -8.828125 C 5.21875 -9.296875 5.160156 -9.648438 5.046875 -9.890625 C 4.941406 -10.128906 4.707031 -10.25 4.34375 -10.25 C 3.957031 -10.25 3.707031 -10.113281 3.59375 -9.84375 C 3.476562 -9.582031 3.421875 -9.21875 3.421875 -8.75 L 3.421875 -3.21875 C 3.421875 -2.738281 3.488281 -2.363281 3.625 -2.09375 C 3.769531 -1.832031 4.03125 -1.703125 4.40625 -1.703125 C 5.09375 -1.703125 5.4375 -2.21875 5.4375 -3.25 L 5.4375 -4.640625 L 4.359375 -4.640625 L 4.359375 -6.1875 L 7.8125 -6.1875 L 7.8125 0 L 6.078125 0 L 5.921875 -0.984375 C 5.554688 -0.210938 4.914062 0.171875 4 0.171875 Z M 4 0.171875 "/></g></g></g><g fill="#737373" fill-opacity="1"><g transform="translate(240.644367, 211.199736)"><g><path d="M 0.890625 -11.953125 L 4.171875 -11.953125 C 5.484375 -11.953125 6.472656 -11.71875 7.140625 -11.25 C 7.804688 -10.789062 8.140625 -9.972656 8.140625 -8.796875 C 8.140625 -7.992188 8.035156 -7.359375 7.828125 -6.890625 C 7.617188 -6.421875 7.238281 -6.050781 6.6875 -5.78125 L 8.3125 0 L 5.59375 0 L 4.28125 -5.359375 L 3.53125 -5.359375 L 3.53125 0 L 0.890625 0 Z M 4.265625 -6.875 C 4.796875 -6.875 5.164062 -7.015625 5.375 -7.296875 C 5.582031 -7.578125 5.6875 -8 5.6875 -8.5625 C 5.6875 -9.09375 5.585938 -9.492188 5.390625 -9.765625 C 5.203125 -10.035156 4.863281 -10.171875 4.375 -10.171875 L 3.53125 -10.171875 L 3.53125 -6.875 Z M 4.265625 -6.875 "/></g></g></g><g fill="#737373" fill-opacity="1"><g transform="translate(251.55891, 211.199736)"><g><path d="M 2.5625 -11.953125 L 5.578125 -11.953125 L 7.796875 0 L 5.375 0 L 4.96875 -2.515625 L 3.21875 -2.515625 L 2.796875 0 L 0.3125 0 Z M 4.71875 -4.09375 L 4.078125 -8.765625 L 3.453125 -4.09375 Z M 4.71875 -4.09375 "/></g></g></g><g fill="#737373" fill-opacity="1"><g transform="translate(261.750793, 211.199736)"><g><path d="M 0.890625 -11.953125 L 3.90625 -11.953125 C 4.9375 -11.953125 5.742188 -11.820312 6.328125 -11.5625 C 6.910156 -11.3125 7.320312 -10.910156 7.5625 -10.359375 C 7.800781 -9.816406 7.921875 -9.085938 7.921875 -8.171875 L 7.921875 -3.828125 C 7.921875 -2.910156 7.800781 -2.175781 7.5625 -1.625 C 7.320312 -1.070312 6.910156 -0.660156 6.328125 -0.390625 C 5.753906 -0.128906 4.957031 0 3.9375 0 L 0.890625 0 Z M 3.9375 -1.828125 C 4.320312 -1.828125 4.601562 -1.882812 4.78125 -2 C 4.96875 -2.113281 5.082031 -2.273438 5.125 -2.484375 C 5.175781 -2.691406 5.203125 -3.003906 5.203125 -3.421875 L 5.203125 -8.625 C 5.203125 -9.007812 5.175781 -9.300781 5.125 -9.5 C 5.070312 -9.707031 4.953125 -9.859375 4.765625 -9.953125 C 4.585938 -10.054688 4.304688 -10.109375 3.921875 -10.109375 L 3.53125 -10.109375 L 3.53125 -1.828125 Z M 3.9375 -1.828125 "/></g></g></g><g fill="#737373" fill-opacity="1"><g transform="translate(272.458863, 211.199736)"><g><path d="M 2.5625 -11.953125 L 5.578125 -11.953125 L 7.796875 0 L 5.375 0 L 4.96875 -2.515625 L 3.21875 -2.515625 L 2.796875 0 L 0.3125 0 Z M 4.71875 -4.09375 L 4.078125 -8.765625 L 3.453125 -4.09375 Z M 4.71875 -4.09375 "/></g></g></g><path stroke-linecap="butt" transform="matrix(0.750767, 0, 0, 0.75, 15.548375, 127.160221)" fill="none" stroke-linejoin="miter" d="M -0.00199817 2.499913 L 458.539665 2.499913 " stroke="#0d328c" stroke-width="5" stroke-opacity="1" stroke-miterlimit="4"/><path stroke-linecap="butt" transform="matrix(0.750767, 0, 0, 0.75, 15.548375, 244.461092)" fill="none" stroke-linejoin="miter" d="M -0.00199817 2.499794 L 458.539665 2.499794 " stroke="#0d328c" stroke-width="5" stroke-opacity="1" stroke-miterlimit="4"/></svg>